<svg width="800" height="800" viewBox="0 0 800 800" fill="none" xmlns="http://www.w3.org/2000/svg">
<path d="M81.0596 716.167L79.3711 717.36L79.3398 717.381L79.3535 717.417L79.9209 718.933L78.5303 718.654L77.5605 717.2L79.0332 715.138L82.3896 713.412L81.0596 716.167Z" fill="#ED1C24" fill-opacity="0.56" stroke="black" stroke-width="0.1"/>
<path d="M372.032 629.429L370.742 629.059L370.361 627.345L371.56 627.253L372.032 629.429Z" fill="#ED1C24" fill-opacity="0.56" stroke="black" stroke-width="0.1"/>
<path id = "PQ" d="M166.294 663.35H164.612L165.498 662.376L166.294 663.35ZM136.759 633.93V633.93L136.766 633.937L138.751 635.723L139.149 641.89L136.754 647.079L136.8 647.1L136.753 647.079L136.751 647.089L136.151 649.589L136.143 649.621L136.17 649.64L137.234 650.414L135.706 653.09L134.947 651.383L133.149 642.79L133.147 642.781L133.142 642.773L131.342 639.874L131.333 639.858L131.316 639.852L128.438 638.859L127.458 636.112L127.916 635.654L131.489 636.449L131.522 636.456L131.542 636.428L134.032 632.742L135.482 632.259L136.759 633.93Z" fill="#ED1C24" fill-opacity="0.56" stroke="black" stroke-width="0.1"/>
<path d="M261.06 716.167L259.371 717.36L259.34 717.381L259.354 717.417L259.921 718.933L258.53 718.654L257.561 717.2L259.033 715.138L262.39 713.412L261.06 716.167Z" fill="#ED1C24" fill-opacity="0.56" stroke="black" stroke-width="0.1"/>
<mask id="path-5-inside-1_703_16" fill="white">
<path d="M495.3 773.2L495.6 770.2L496.7 770.8L495.3 773.2ZM503 766.6L500.8 768.2L500.9 767.1L503 766.6ZM620 761.6L616.4 763.5L613.3 766.7L609.9 767.6L609.8 766.2L612.3 766.8L616.3 763.3L618.9 761.5L620 761.6ZM443.4 759.3L445 757.1L445.5 758.4L443.4 759.3ZM635 751.6L632.7 753.1L630.6 753L633.5 750.9L635 751.6ZM608.8 749L611 751.9L607.6 749.6L608.8 749ZM452 746.9L451.2 749.6L450 748.5L450.1 746.5L452 746.9ZM647.5 741.7L649.3 741.8L651 743.3L650.8 745L649.1 743.5H643.5L642.4 744.9L636.9 745.2L639.3 744L646.5 741.5L647.5 741.7ZM581.7 739.2L580.3 741.7L576.4 745.7L578.9 741L581.5 738.3L581.7 739.2ZM578.1 743.4L580.5 741.2L581 739.4L579.2 741L578.1 743.4ZM669.9 731.4L670.5 732.2L673.8 732.7L673.4 733.3L669.8 733.1L668.5 731.6L669.9 731.4ZM621.8 714.4L622.5 717L621 717.8L620.5 713.9L621.8 714.4ZM621.1 717.3L622.1 716.8L620.8 714.9L621.1 717.3ZM609.9 709.8L614.2 710.4L615.6 713.1L612.8 712.9L607.8 710.2L609.9 709.8ZM613 712.6L615.2 712.8L612.7 710.4L609.3 710L609.5 711L613 712.6ZM544.8 709.4L549.2 710.3L544.1 711.1L543.4 709.3L544.8 709.4ZM722.8 706L722.1 707.7L720.7 708L721.4 706.1L722.8 706ZM598.5 703.4L595.3 704.7L595.8 703.8L598.5 703.4ZM681.7 681.9L682.4 684.5L680.8 684.9L680.4 683.6L681.7 681.9ZM567.6 669L562.4 672.8L559.2 674.3L561.9 670.2L563.7 668.6L561.2 672.2L563.2 672L567.2 668.6L567.6 669ZM733.8 666.2L735.7 666.1L737.2 667.7L732.7 666.7L733.8 666.2ZM702.9 663.5L702.2 666.6L700.8 669.8L701.1 666.7L700.7 664.7L701.9 663.1L702.9 663.5ZM701.2 667.9L702.6 664.2L701 664.8L701.2 667.9ZM686.5 657.1L688.1 658.4L686.5 659.8L684.7 659.6L684.1 657.7L686.5 657.1ZM684.8 659.3L686.6 659.6L687.2 657.6L684.4 657.7L684.8 659.3ZM644.4 653.9L643.8 656.2L643.3 654.4L644.4 653.9ZM605.3 653.5L605.1 647.3L606.1 648L605.3 653.5ZM675.3 644.3L674.2 645.5L674 643.5L675.3 644.3ZM732 640L730.5 638.8L731.7 637.3L733 639L732 640ZM646.1 637.8L644.6 639.3L644 638L646.9 635.7L646.1 637.8ZM638.9 638.3L638.8 636.3L640.2 634.8L638.9 638.3ZM698.6 628.1L698.1 630.7L696.7 631.7L694.7 630.4L696.2 628.1H698.6ZM751.2 627.3L752.7 626.9V628.3L750.9 629.3L749.8 627.2L751.2 627.3ZM716.4 624.7H715.7L715.8 619.2L717.9 623L716.4 624.7ZM739.6 616.7L737.6 615.7L737.9 614.1L740.2 616.2L739.6 616.7ZM701.9 615.8L703.2 620.3L701.6 618.8L700.9 616L699.3 616.1L700.3 622.6L701.2 622.7L699.7 625.2L698.7 618.3L698.8 616L700.2 613.9L701.9 615.8ZM656.7 612.1L655.1 612.2L657.3 610.4L656.7 612.1ZM617.2 609.7L617.1 609.9L615.2 610L616.7 608.6L617.2 609.7ZM723.8 586.8L724.9 583.1L725.7 583.5L723.8 586.8ZM644.5 582L642.9 582.4L642.4 586.5L642.1 583.3L642.8 581.6L644.5 582ZM717.2 583.9L716.9 583.1L718.9 581.2L717.2 583.9ZM726.4 581.9L725.7 581.6L727.5 578.5L726.4 581.9ZM721.1 580.7L720.6 580.2L724.2 577L724.7 577.6L721.1 580.7ZM727.5 574.7L726.8 573.9L729 572.6L727.5 574.7ZM731.1 573.7L729.8 571.4L731.3 569.1L731.6 572.2L731.1 573.7Z"/>
</mask>
<path id = "QĐTS" d="M495.3 773.2L495.6 770.2L496.7 770.8L495.3 773.2ZM503 766.6L500.8 768.2L500.9 767.1L503 766.6ZM620 761.6L616.4 763.5L613.3 766.7L609.9 767.6L609.8 766.2L612.3 766.8L616.3 763.3L618.9 761.5L620 761.6ZM443.4 759.3L445 757.1L445.5 758.4L443.4 759.3ZM635 751.6L632.7 753.1L630.6 753L633.5 750.9L635 751.6ZM608.8 749L611 751.9L607.6 749.6L608.8 749ZM452 746.9L451.2 749.6L450 748.5L450.1 746.5L452 746.9ZM647.5 741.7L649.3 741.8L651 743.3L650.8 745L649.1 743.5H643.5L642.4 744.9L636.9 745.2L639.3 744L646.5 741.5L647.5 741.7ZM581.7 739.2L580.3 741.7L576.4 745.7L578.9 741L581.5 738.3L581.7 739.2ZM578.1 743.4L580.5 741.2L581 739.4L579.2 741L578.1 743.4ZM669.9 731.4L670.5 732.2L673.8 732.7L673.4 733.3L669.8 733.1L668.5 731.6L669.9 731.4ZM621.8 714.4L622.5 717L621 717.8L620.5 713.9L621.8 714.4ZM621.1 717.3L622.1 716.8L620.8 714.9L621.1 717.3ZM609.9 709.8L614.2 710.4L615.6 713.1L612.8 712.9L607.8 710.2L609.9 709.8ZM613 712.6L615.2 712.8L612.7 710.4L609.3 710L609.5 711L613 712.6ZM544.8 709.4L549.2 710.3L544.1 711.1L543.4 709.3L544.8 709.4ZM722.8 706L722.1 707.7L720.7 708L721.4 706.1L722.8 706ZM598.5 703.4L595.3 704.7L595.8 703.8L598.5 703.4ZM681.7 681.9L682.4 684.5L680.8 684.9L680.4 683.6L681.7 681.9ZM567.6 669L562.4 672.8L559.2 674.3L561.9 670.2L563.7 668.6L561.2 672.2L563.2 672L567.2 668.6L567.6 669ZM733.8 666.2L735.7 666.1L737.2 667.7L732.7 666.7L733.8 666.2ZM702.9 663.5L702.2 666.6L700.8 669.8L701.1 666.7L700.7 664.7L701.9 663.1L702.9 663.5ZM701.2 667.9L702.6 664.2L701 664.8L701.2 667.9ZM686.5 657.1L688.1 658.4L686.5 659.8L684.7 659.6L684.1 657.7L686.5 657.1ZM684.8 659.3L686.6 659.6L687.2 657.6L684.4 657.7L684.8 659.3ZM644.4 653.9L643.8 656.2L643.3 654.4L644.4 653.9ZM605.3 653.5L605.1 647.3L606.1 648L605.3 653.5ZM675.3 644.3L674.2 645.5L674 643.5L675.3 644.3ZM732 640L730.5 638.8L731.7 637.3L733 639L732 640ZM646.1 637.8L644.6 639.3L644 638L646.9 635.7L646.1 637.8ZM638.9 638.3L638.8 636.3L640.2 634.8L638.9 638.3ZM698.6 628.1L698.1 630.7L696.7 631.7L694.7 630.4L696.2 628.1H698.6ZM751.2 627.3L752.7 626.9V628.3L750.9 629.3L749.8 627.2L751.2 627.3ZM716.4 624.7H715.7L715.8 619.2L717.9 623L716.4 624.7ZM739.6 616.7L737.6 615.7L737.9 614.1L740.2 616.2L739.6 616.7ZM701.9 615.8L703.2 620.3L701.6 618.8L700.9 616L699.3 616.1L700.3 622.6L701.2 622.7L699.7 625.2L698.7 618.3L698.8 616L700.2 613.9L701.9 615.8ZM656.7 612.1L655.1 612.2L657.3 610.4L656.7 612.1ZM617.2 609.7L617.1 609.9L615.2 610L616.7 608.6L617.2 609.7ZM723.8 586.8L724.9 583.1L725.7 583.5L723.8 586.8ZM644.5 582L642.9 582.4L642.4 586.5L642.1 583.3L642.8 581.6L644.5 582ZM717.2 583.9L716.9 583.1L718.9 581.2L717.2 583.9ZM726.4 581.9L725.7 581.6L727.5 578.5L726.4 581.9ZM721.1 580.7L720.6 580.2L724.2 577L724.7 577.6L721.1 580.7ZM727.5 574.7L726.8 573.9L729 572.6L727.5 574.7ZM731.1 573.7L729.8 571.4L731.3 569.1L731.6 572.2L731.1 573.7Z" fill="#ED1C24" fill-opacity="0.56" stroke="black" stroke-width="0.2" mask="url(#path-5-inside-1_703_16)"/>
<path id = "QĐHS" d="M544.761 360.764L542.569 362.283L543.442 360.927L543.505 360.831L543.391 360.851L541.191 361.251L541.188 361.252L538.788 361.851L538.712 361.871L538.761 361.931L539.661 363.032L539.681 363.056L539.712 363.048L542.455 362.362L542.179 362.552L539.419 363.144L538.377 361.914L539.919 361.047L545.208 359.872L544.761 360.764ZM508.586 360.613L506.792 361.745L505.284 361.274L506.417 359.859L508.586 360.613ZM507.155 349.731L507.643 351.878L505.856 353.099L506.05 350.504L506.053 350.45H500.479L500.466 350.464L497.265 353.564L497.319 353.646L500.397 352.355L501.204 352.803L499.179 354.154L497.026 354.741L496.261 353.211L499.921 349.948L506.189 349.152L507.155 349.731ZM518.098 347.049V347.048L518.085 347.052L514.939 348.035L514.757 346.937L518.694 345.953L520.702 346.957L518.098 347.049ZM498.498 342.109L497.175 340.609L497.969 340.08L498.498 342.109ZM506.533 338.822L505.05 341.789V338.08L506.533 338.822ZM504.624 337.313L503.377 336.779L504.178 335.711L504.624 337.313ZM487.964 329.032L486.805 328.587L488.32 327.516L487.964 329.032ZM530.555 315.874L527.217 316.446L526.49 315.719L528.796 314.855L530.555 315.874ZM496.059 310.016L492.893 311.647L490.766 311.164L491.038 310.438L493.802 309.452L496.059 310.016Z" fill="#ED1C24" fill-opacity="0.56" stroke="black" stroke-width="0.1"/>
<path id = "BN_BG" d="M239.518 88.6924L238.773 89.1582L238.75 89.1729V93.333L238.78 93.3457L242.381 94.8457L242.396 94.8525L242.412 94.8486L244.438 94.3652L244.15 96.1924L244.143 96.2451L244.195 96.25L246.25 96.4453V98.5381L246.286 98.5479L248.786 99.248L248.819 99.2578L248.84 99.2305L250.127 97.5459L253.107 97.0498L253.126 97.0459L253.138 97.0322L255.638 94.0322L255.658 94.0078L255.645 93.9795L255.058 92.707L258.025 88.9482L262.677 88.5518L264.061 90.2324L264.065 90.2383L264.072 90.2422L266.673 91.9424L266.71 91.9668L266.738 91.9326L268.216 90.1572L270.971 91.043L272.039 92.208L271.055 94.1777L271.022 94.2432L271.095 94.25L273.163 94.4463L274.153 97.3164L274.166 97.3545L274.206 97.3496L277.653 96.9561L277.95 100.904L277.952 100.925L277.968 100.938L279.94 102.614L279.56 103.661L277.183 104.553L277.146 104.566L277.15 104.604L277.447 107.386L275.389 110.131L274.429 109.459L274.413 109.447L274.393 109.45L271.806 109.848L270.318 109.253L270.287 109.241L270.264 109.266L268.482 111.146L261.21 109.751L261.198 109.748L261.187 109.752L259.801 110.147L256.624 109.056L254.732 107.462L254.72 107.451L254.704 107.45L250.904 107.15L250.884 107.148L250.868 107.162L247.201 110.333L245.734 108.964L245.625 108.861L245.651 109.009L246.046 111.284L244.962 112.567L244.946 112.586L244.951 112.608L245.547 115.79L243.772 119.044L241.908 118.75L241.897 118.749L241.887 118.752L238.499 119.748L236.817 119.353L234.824 118.256L234.811 118.249L234.796 118.25L230.875 118.543L231.747 116.318L231.756 116.295L231.743 116.273L230.943 114.974L230.932 114.955L230.91 114.951L227.931 114.355L226.661 112.404L227.238 111.732L227.254 111.714L227.249 111.69L226.356 107.231L227.818 106.646L227.855 106.631L227.85 106.592L227.45 103.992L227.447 103.976L227.435 103.964L225.854 102.483L226.438 100.06L227.688 100.349L227.731 100.358L227.747 100.317L228.925 97.1758L231.873 99.1416L231.923 99.1748L231.946 99.1191L232.946 96.8193L232.951 96.8086L232.95 96.7969L232.75 93.1074L233.446 91.4199L233.466 91.373L233.42 91.3545L232.28 90.8789L234.525 88.0479L238.482 87.751L239.518 88.6924Z" fill="#ED1C24" fill-opacity="0.56" stroke="black" stroke-width="0.1"/>
<path id = "CM_BL" d="M204.978 673.645L204.988 673.649H209.063L209.449 674.905L208.95 680.095L208.947 680.131L208.979 680.146L213.466 682.14L214.258 683.327L214.271 683.347L214.294 683.35L216.694 683.649L216.709 683.651L216.723 683.645L219.892 682.06L221.966 684.036L222.006 684.075L222.04 684.03L223.19 682.496L224.034 684.277L221.776 685.456L221.745 685.473L221.75 685.508L222.444 689.973L218.28 692.154L208.881 696.053L208.875 696.057L205.875 697.857L205.9 697.9L205.874 697.856L205.866 697.864L202.866 700.664L202.859 700.671L202.854 700.68L198.756 709.772L195.872 712.857L191.583 714.354L191.567 714.358L191.559 714.372L188.168 719.258L183.089 721.051L175.702 722.648L169.74 720.859L169.36 719.438L174.011 718.449L174.08 718.435L174.043 718.374L172.758 716.298L173.335 715.24L176.919 713.847L176.937 713.84L176.944 713.823L178.344 711.123L178.407 711.001L178.28 711.054L174.708 712.542L172.653 710.88L173.55 705.408V705.402L173.95 693.008L174.55 689.208V689.202L175.145 676.398L177.369 678.139L177.418 678.177L177.445 678.122L179.11 674.79L180.362 676.233L180.387 676.261L180.42 676.246L183.195 675.056L195.474 682.643L195.508 682.663L195.535 682.635L197.136 681.035L197.149 681.021L197.15 681.003L197.348 677.624L198.831 676.439L198.855 676.42L198.849 676.39L198.549 674.989L198.546 674.977L198.537 674.967L196.816 673.055L200.898 673.25V673.251L200.906 673.25L203.591 672.951L204.978 673.645Z" fill="#ED1C24" fill-opacity="0.56" stroke="black" stroke-width="0.1"/>
<path id ="VN04" d="M236.45 43.7865L236.444 43.7748L234.643 40.6752L234.631 40.6537L234.607 40.6508L233.006 40.4506L232.989 40.4486L232.974 40.4574L226.596 44.3431L224.32 43.3539L224.312 43.351L224.304 43.35L221.433 43.1517L220.245 40.6781L220.239 40.6654L220.227 40.6576L218.639 39.6654L217.758 37.6088L220.137 34.933L220.163 34.9047L220.142 34.8724L218.541 32.472L218.518 32.4369L218.48 32.4545L216.493 33.348L214.806 33.1508L214.79 33.1488L214.777 33.1556L212.376 34.4564L212.362 34.4642L212.355 34.4789L211.667 35.9506L210.097 36.0502L210.079 36.0511L210.066 36.0638L208.38 37.6498H206.852L206.95 34.3011V34.2865L206.943 34.2738L205.443 31.7738L205.438 31.765L205.429 31.7592L201.429 28.8597L201.43 28.8588L201.422 28.8549L195.939 26.2113L197.514 25.7484L197.546 25.7386L197.55 25.7054L197.746 23.931L200.325 22.4437L200.343 22.433L200.349 22.4125L200.94 20.1439L206.408 19.2494L206.437 19.2445L206.447 19.2181L208.437 14.0414L209.865 13.6605L210.552 16.1136L210.565 16.1586L210.611 16.1488L213.401 15.5511L217.461 16.3431L217.853 17.516L217.86 17.5375L217.881 17.5463L220.268 18.5404L221.26 19.8304L221.272 19.8451L221.289 19.849L223.56 20.3422L224.152 22.5131L224.165 22.5609L224.213 22.5482L226.802 21.85L230.791 22.5492L230.848 22.559L230.85 22.5023L230.948 19.9496L240.078 20.0492L242.455 22.5258L243.252 25.1146L243.259 25.1381L243.282 25.1469L247.182 26.6469L247.211 26.6576L247.234 26.6371L248.618 25.35L251.399 25.4496L251.425 25.4506L251.441 25.4291L252.226 24.348L254.502 24.2504L254.536 24.2484L254.547 24.2162L255.228 22.2689L257.778 23.5443L257.8 23.556L257.823 23.5443L258.989 22.9613L261.963 26.1342L262.009 26.183L262.043 26.1254L262.726 24.9535L264.752 25.2435L264.85 26.7035L264.852 26.7308L264.875 26.7435L267.375 28.1439L267.383 28.1478L267.392 28.1498L269.753 28.5424L269.948 30.5736L267.274 32.2572L267.24 32.2787L267.252 32.3148L267.837 34.1674L266.684 34.5521L266.661 34.5599L266.654 34.5824L264.465 40.5482L261.715 40.4496L259.826 39.2582L259.771 39.222L259.752 39.2865L258.352 44.1859L258.351 44.1927L257.753 48.0677L255.49 49.348L254.207 49.1508L254.156 49.1429L254.151 49.1937L253.953 50.8607L252.3 51.347L249.615 50.5521L249.594 50.5463L249.575 50.556L248.022 51.4301L247.245 49.7787L247.24 49.767L247.229 49.7592L242.328 46.3588L242.3 46.3392L242.272 46.3588L240.272 47.7592L240.257 47.7689L240.252 47.7845L239.573 49.9154L238.231 48.8607L238.212 48.8461L238.19 48.851L235.933 49.3412L235.255 47.3099L236.439 45.8314L236.45 45.8177V43.7865Z" fill="#ED1C24" fill-opacity="0.56" stroke="black" stroke-width="0.1"/>
<mask id="path-10-inside-2_703_16" fill="white">
<path d="M111.3 70.6L110.4 73.4L112.5 76L114.2 80.9L116.1 84.8L113.5 86.6L114.2 87.5L112.4 90.7L112.2 92.2L109.5 93.3L108.7 97.3L106.3 97.1L103.6 97.8L106 100.8L105.3 102.3L108 103.2L108.2 110.4L106.5 111.2L107.8 115.2L105.7 115.6L102.5 113.9L100.8 115.4L101.8 121.1L101.3 123.2L97.9 123.8L95.5999 122.8L93.0999 123.7L89.1999 115.9L86.3 115.3L84.5999 110.9L83 110.2L83.3 107.3L81.0999 106L79 106.4L78.5 105.4L80.5999 103.8L82.5999 103.6V99.7L84.1999 96.7L81.5 97.6L83.5 93.7L87.1999 89.7L86.5999 86.3L87 82.9L85.3 82.6L81.6999 83.8L80.6999 82.9L80.5 77.2H79L79.1999 82.3L75.5 85.9L72.0999 86.2L70.8 82.3L71.4 79.3L70.5999 76.2L69.1999 75.5L68.8 73L64.3 70.7L63.2 69.5L64.6999 68L60.7 64.6L60.5 63.4L58.2 62.8L54.5999 58.8L53.0999 59L52.9 57.5L51.4 57.4L51 55.2L48.2999 54.1L49.0999 52.5L47.7 51.5L46.7 49.3L47.4 47.8L51.2 47.9L52.4 48.6L51.7 46.5L55.2 42L56.5 44.8L58.2 45.9L58.4 48.9L61 51.1L65.8 57.1L67.1999 56.3L69.3 57.5L69.4 59.4L72.0999 60.8L73.0999 58.9L71.4 56.6L74.6999 57.4L75.8 58.9L75.3 62.5L76.9 64.8L80.6999 66L84.0999 64.6L86.9 67.8L87.5999 66.6L89.4 66.8L91.8 65.7L92.4 64.1L94.5999 65.8L95.6999 65.2L100.9 67.2L101.1 63.9L103.5 61.5L105.8 61.4L108.3 66.4L109.9 67.7L109.2 68.6L111.3 70.6Z"/>
</mask>
<path id = "VN71" d="M111.3 70.6L110.4 73.4L112.5 76L114.2 80.9L116.1 84.8L113.5 86.6L114.2 87.5L112.4 90.7L112.2 92.2L109.5 93.3L108.7 97.3L106.3 97.1L103.6 97.8L106 100.8L105.3 102.3L108 103.2L108.2 110.4L106.5 111.2L107.8 115.2L105.7 115.6L102.5 113.9L100.8 115.4L101.8 121.1L101.3 123.2L97.9 123.8L95.5999 122.8L93.0999 123.7L89.1999 115.9L86.3 115.3L84.5999 110.9L83 110.2L83.3 107.3L81.0999 106L79 106.4L78.5 105.4L80.5999 103.8L82.5999 103.6V99.7L84.1999 96.7L81.5 97.6L83.5 93.7L87.1999 89.7L86.5999 86.3L87 82.9L85.3 82.6L81.6999 83.8L80.6999 82.9L80.5 77.2H79L79.1999 82.3L75.5 85.9L72.0999 86.2L70.8 82.3L71.4 79.3L70.5999 76.2L69.1999 75.5L68.8 73L64.3 70.7L63.2 69.5L64.6999 68L60.7 64.6L60.5 63.4L58.2 62.8L54.5999 58.8L53.0999 59L52.9 57.5L51.4 57.4L51 55.2L48.2999 54.1L49.0999 52.5L47.7 51.5L46.7 49.3L47.4 47.8L51.2 47.9L52.4 48.6L51.7 46.5L55.2 42L56.5 44.8L58.2 45.9L58.4 48.9L61 51.1L65.8 57.1L67.1999 56.3L69.3 57.5L69.4 59.4L72.0999 60.8L73.0999 58.9L71.4 56.6L74.6999 57.4L75.8 58.9L75.3 62.5L76.9 64.8L80.6999 66L84.0999 64.6L86.9 67.8L87.5999 66.6L89.4 66.8L91.8 65.7L92.4 64.1L94.5999 65.8L95.6999 65.2L100.9 67.2L101.1 63.9L103.5 61.5L105.8 61.4L108.3 66.4L109.9 67.7L109.2 68.6L111.3 70.6Z" fill="#ED1C24" fill-opacity="0.56" stroke="black" stroke-width="0.2" mask="url(#path-10-inside-2_703_16)"/>
<mask id="path-11-inside-3_703_16" fill="white">
<path d="M289.3 549.8L289.4 556L293.6 557.1L298.9 564.1L297.1 568.7L292.1 570.6L291.4 574.9L292.9 575.8L292.7 577.5L294.5 579.3L295.5 577.6L296.3 580.8L298 580.2L300.9 582.5L299 584.4L301.1 584.6L301.8 586.4L304 588.5L304.4 588L303.2 590.6L303.4 593.5L302.2 593.9L300.3 598.3L300.1 600.2L298.4 603.2L301 605.2L302.7 605L305.2 608.6L305.6 614.7L302.6 616.6L300 615.1L295.8 618.6L295.3 621.1L292.7 620.7L292.8 617.4L287.5 616.6L285 617.8L284.8 620.8L283 622.3L280.4 622.2L278.3 623.4L279.7 625.3L279.1 628.5L278 628.3L277.7 625.9L274.3 624.5L272.5 622.5L270.1 623.5L266.8 620.3L267.3 618.1L270 616.2L272.5 616.8L272.7 614.4L271.6 613.1L270.8 610.3L267.1 607.9L268.7 606.8L267.7 605.7L269.4 604.3L270.1 602.5L272.4 604.6L274.2 604.5L276.8 600.4L276.9 598.5L275.3 596.5L274.1 596.3L274.3 593.9L275.5 590.9L276 589.1L274.5 588.5L271.7 590.5L271.5 587.5L268.2 587.2L267.4 585.9L269.3 583.4L268.8 581.9L266.6 582.7L266.8 583.7L263 588.5L260.2 588.1L260 586.9L257.7 587.7L256.5 586.9L256.7 584.8L258.1 583.6L254 581.6L251 581.8L251.4 579.6L254.1 578.1L252.3 573.2L250.5 568.7L253 563.8L250.3 558.6L252.5 557.9L253.4 558.7L260.7 558.6L262.1 558L264.7 559L266.3 557.3L268.6 553.5L274.6 554.4L278.2 552.8L280.7 551L285.1 545.9L285.7 544.3L288.2 543L289.3 549.8Z"/>
</mask>
<path id = "ĐN_BP" d="M289.3 549.8L289.4 556L293.6 557.1L298.9 564.1L297.1 568.7L292.1 570.6L291.4 574.9L292.9 575.8L292.7 577.5L294.5 579.3L295.5 577.6L296.3 580.8L298 580.2L300.9 582.5L299 584.4L301.1 584.6L301.8 586.4L304 588.5L304.4 588L303.2 590.6L303.4 593.5L302.2 593.9L300.3 598.3L300.1 600.2L298.4 603.2L301 605.2L302.7 605L305.2 608.6L305.6 614.7L302.6 616.6L300 615.1L295.8 618.6L295.3 621.1L292.7 620.7L292.8 617.4L287.5 616.6L285 617.8L284.8 620.8L283 622.3L280.4 622.2L278.3 623.4L279.7 625.3L279.1 628.5L278 628.3L277.7 625.9L274.3 624.5L272.5 622.5L270.1 623.5L266.8 620.3L267.3 618.1L270 616.2L272.5 616.8L272.7 614.4L271.6 613.1L270.8 610.3L267.1 607.9L268.7 606.8L267.7 605.7L269.4 604.3L270.1 602.5L272.4 604.6L274.2 604.5L276.8 600.4L276.9 598.5L275.3 596.5L274.1 596.3L274.3 593.9L275.5 590.9L276 589.1L274.5 588.5L271.7 590.5L271.5 587.5L268.2 587.2L267.4 585.9L269.3 583.4L268.8 581.9L266.6 582.7L266.8 583.7L263 588.5L260.2 588.1L260 586.9L257.7 587.7L256.5 586.9L256.7 584.8L258.1 583.6L254 581.6L251 581.8L251.4 579.6L254.1 578.1L252.3 573.2L250.5 568.7L253 563.8L250.3 558.6L252.5 557.9L253.4 558.7L260.7 558.6L262.1 558L264.7 559L266.3 557.3L268.6 553.5L274.6 554.4L278.2 552.8L280.7 551L285.1 545.9L285.7 544.3L288.2 543L289.3 549.8Z" fill="#ED1C24" fill-opacity="0.56" stroke="black" stroke-width="0.2" mask="url(#path-11-inside-3_703_16)"/>
<mask id="path-12-inside-4_703_16" fill="white">
<path d="M374.7 428.5L376.2 431.4L377.8 432.7L377.5 434.9L379.8 439.2L379.7 442.7L382.5 446.9L383.4 449.5L382.6 450.4L384.4 454L383.6 454.3L382.3 452.3V454.7L383.9 454.6L384.2 456.9L385.7 459.5L386.3 462.5L385.5 462.9L386.8 465.8L388 466.3L388.2 469.1L387.6 472.6L385.9 472.2L386.4 470.8L385.6 465.9L384.8 464.6L384.5 471.1L385.9 471.9L384.2 472.8L385 476.6L383.6 475.5L381.5 476.3L381.2 478.3L379.7 478.2L379.5 480.7L376.3 482L375.1 483.5L372 484.1L369.5 482.9L367.8 483.2L366.8 481.6L363.8 481.2L362 481.7L359.8 485.5L361.8 486.9L364.1 486.2L364.9 491.9L367.8 495.7L366.3 501.3L362.6 502.6L362 504.6L362.3 507.5L359.3 508.3L358.7 509.3L350.7 507.4L350.8 505.7L348.1 503.1L348.2 501.2L346.5 499.6L345.8 496.8L344 496L342.7 492.7L338.8 491.1L334.7 490.6L333.1 489.4L328.7 489.1L326.6 490.7L318.4 489.8L315.1 491.4L311.8 491.1L307.4 494.4L308.6 491.7L307.9 483.6L305.8 479L305.6 476.9L303.9 473.2L300 470.7L301 467.9L300.1 467L300.4 464.4L301.1 462.8L303.5 461.5L303.4 460L307 459.4L307.8 457.6L309.5 457.3L309.9 452.8L311.3 450L314.6 450.9L318.5 449.3L319 447.4L321.3 447.2L324.3 449.6L326.9 448.9L328.1 447.3L329 447.8L331.7 443.1L333.5 443.8L337.8 441.5L340.3 441.8L340.1 440.9L344.4 435.1L343.3 432.6L345.4 431.7L347 433.7L349.5 434.3L351.4 433.8L352.3 432.2L356.2 434.3L359.5 431.8H362.4L362.5 428.3L365.6 427.9L366.2 427.1L368.5 427.5L370.9 426.9L374.7 428.5Z"/>
</mask>
<path id = "GL_BĐ" d="M374.7 428.5L376.2 431.4L377.8 432.7L377.5 434.9L379.8 439.2L379.7 442.7L382.5 446.9L383.4 449.5L382.6 450.4L384.4 454L383.6 454.3L382.3 452.3V454.7L383.9 454.6L384.2 456.9L385.7 459.5L386.3 462.5L385.5 462.9L386.8 465.8L388 466.3L388.2 469.1L387.6 472.6L385.9 472.2L386.4 470.8L385.6 465.9L384.8 464.6L384.5 471.1L385.9 471.9L384.2 472.8L385 476.6L383.6 475.5L381.5 476.3L381.2 478.3L379.7 478.2L379.5 480.7L376.3 482L375.1 483.5L372 484.1L369.5 482.9L367.8 483.2L366.8 481.6L363.8 481.2L362 481.7L359.8 485.5L361.8 486.9L364.1 486.2L364.9 491.9L367.8 495.7L366.3 501.3L362.6 502.6L362 504.6L362.3 507.5L359.3 508.3L358.7 509.3L350.7 507.4L350.8 505.7L348.1 503.1L348.2 501.2L346.5 499.6L345.8 496.8L344 496L342.7 492.7L338.8 491.1L334.7 490.6L333.1 489.4L328.7 489.1L326.6 490.7L318.4 489.8L315.1 491.4L311.8 491.1L307.4 494.4L308.6 491.7L307.9 483.6L305.8 479L305.6 476.9L303.9 473.2L300 470.7L301 467.9L300.1 467L300.4 464.4L301.1 462.8L303.5 461.5L303.4 460L307 459.4L307.8 457.6L309.5 457.3L309.9 452.8L311.3 450L314.6 450.9L318.5 449.3L319 447.4L321.3 447.2L324.3 449.6L326.9 448.9L328.1 447.3L329 447.8L331.7 443.1L333.5 443.8L337.8 441.5L340.3 441.8L340.1 440.9L344.4 435.1L343.3 432.6L345.4 431.7L347 433.7L349.5 434.3L351.4 433.8L352.3 432.2L356.2 434.3L359.5 431.8H362.4L362.5 428.3L365.6 427.9L366.2 427.1L368.5 427.5L370.9 426.9L374.7 428.5Z" fill="#ED1C24" fill-opacity="0.56" stroke="black" stroke-width="0.2" mask="url(#path-12-inside-4_703_16)"/>
<path id = "VNHN" d="M223.76 100.043L224.452 102.414L224.462 102.448L224.496 102.45L225.778 102.548L227.352 104.024L227.744 106.567L226.281 107.154L226.243 107.169L226.251 107.209L227.146 111.685L226.562 112.368L226.538 112.396L226.558 112.427L227.858 114.427L227.87 114.445L227.89 114.449L230.869 115.044L231.643 116.305L230.761 118.559L228.885 119.153L228.843 119.165L228.85 119.209L229.038 120.243L226.506 119.951L226.448 119.944L226.45 120.001L226.549 122.681L225.762 123.567L225.734 123.599L225.761 123.631L227.531 125.794L226.467 126.763L226.442 126.785L226.452 126.815L227.152 129.015L227.16 129.037L227.181 129.046L229.153 129.834L229.551 133.406L229.556 133.457L229.607 133.45L230.793 133.267L229.583 135.035L228.022 134.255L227.996 134.243L227.971 134.259L225.784 135.75L222.799 135.85L222.784 135.851L222.771 135.859L221.771 136.559L221.757 136.57L221.752 136.587L220.859 139.856L219.821 140.045L218.54 138.37L218.525 138.35H216.833L215.057 134.406L215.64 133.63L215.663 133.6L215.639 133.57L213.948 131.381L213.65 127.197L213.647 127.164L213.617 127.153L211.718 126.453L211.69 126.443L211.668 126.461L210.024 127.83L210.946 125.62L210.96 125.587L210.933 125.563L209.759 124.486L210.746 122.12L210.775 122.05H207.011L204.332 120.76L201.539 117.369L201.52 117.346L201.491 117.351L198.124 117.945L197.055 116.196L198.346 113.019L198.356 112.994L198.341 112.971L196.757 110.694L197.339 109.435L199.324 108.344L199.344 108.333L199.348 108.312L200.34 104.245L202.284 104.052L203.957 105.529L205.352 109.816L205.357 109.83L205.37 109.84L206.57 110.74L206.581 110.748L206.594 110.749L209.794 111.15L209.807 111.152L209.82 111.146L212.62 109.946L212.655 109.931L212.649 109.893L212.453 108.522L214.81 106.853L217.588 107.548L217.653 107.565L217.65 107.497L217.551 105.619L219.436 103.634L219.443 103.627L219.446 103.619L220.547 100.819L221.225 99.6547L223.76 100.043Z" fill="#ED1C24" fill-opacity="0.56" stroke="black" stroke-width="0.1"/>
<path id = "VN23" d="M220.059 229.042L221.551 234.712V234.713L221.555 234.721L222.954 237.82L222.959 237.828L227.259 244.029L227.287 244.069L227.328 244.041L227.886 243.669L230.258 247.227V247.228L230.264 247.235L235.063 252.334L235.075 252.346L235.091 252.349L238.283 252.947L242.569 255.54L247.665 260.436L247.673 260.444L247.683 260.446L250.862 261.639L252.053 264.419V264.42L252.059 264.428L254.358 267.828L254.369 267.843L254.387 267.848L254.875 267.987L252.227 268.444L251.644 267.376L251.633 267.355L251.608 267.351L247.009 266.551L246.983 266.546L246.965 266.564L244.165 269.264L244.152 269.277L244.15 269.294L244.058 270.036L241.513 269.352L241.499 269.348L241.484 269.353L238.997 270.148L232.981 268.668L234.441 266.529L234.467 266.49L234.432 266.462L230.132 262.862L230.114 262.847L230.091 262.851L228.524 263.144L227.628 261.65H225.681L225.666 261.663L224.477 262.752L222.094 263.05L222.03 263.059L222.054 263.118L222.534 264.368L220.201 265.147L218.019 264.254L217.981 264.238L217.958 264.273L216.572 266.35L213.709 266.449L210.844 265.461L210.149 261.79L210.141 261.746L210.096 261.75L208.822 261.847L207.446 260.078L206.549 256.089L206.537 256.037L206.486 256.052L203.086 257.052L203.062 257.059L203.053 257.083L202.572 258.428L198.355 256.172L198.849 253.61L198.859 253.555L198.805 253.55L195.335 253.252L194.747 251.583L194.74 251.564L194.721 251.555L192.146 250.365L191.649 246.893L191.643 246.847L191.596 246.85L190.322 246.947L188.052 244.184L188.648 239.611L189.442 237.129L190.709 236.057L191.982 236.547H191.983L193.983 237.247L194.009 237.256L194.03 237.24L196.403 235.458L200.376 237.644L200.39 237.652L200.406 237.65L203.806 237.249V237.251L203.815 237.247L207.078 236.159L208.858 238.927L208.879 238.96L208.916 238.947L212.394 237.754L213.374 238.343L213.397 238.357L213.422 238.345L215.922 237.145L215.95 237.131V235.514L217.632 233.141L219.618 232.347L219.667 232.327L219.646 232.279L218.557 229.805L219.222 228.856L220.059 229.042Z" fill="#ED1C24" fill-opacity="0.56" stroke="black" stroke-width="0.1"/>
<path id = "HP_HD" d="M254.642 107.545L253.856 112.16L251.786 112.752L251.738 112.766L251.752 112.812L252.452 115.413L252.459 115.44L252.485 115.448L255.386 116.348L255.397 116.352L255.409 116.349L258.182 115.853L259.864 117.634L259.879 117.649H261.79L267.352 119.735L267.449 122.59L266.661 124.463L265.277 125.155L265.188 125.2L265.277 125.245L266.655 125.934L267.049 127.901L266.851 129.896L266.849 129.916L266.861 129.932L268.946 132.513L268.668 133.902L267.435 132.763L267.409 132.74L267.379 132.755L264.879 133.955L264.87 133.959L264.863 133.967L262.573 136.554L260.607 136.947L259.524 136.356L259.502 136.345L259.479 136.354L255.486 138.15L253.23 138.248L251.74 135.268L251.73 135.261L249.954 133.879L250.25 131.807L250.265 131.703L250.175 131.757L247.511 133.335L247.038 132.768L247.015 132.739L246.981 132.754L243.603 134.145L241.544 132.968L241.049 130.889L241.043 130.866L241.023 130.856L238.131 129.36L237.053 128.085L238.349 121.108L238.354 121.085L238.337 121.066L236.94 119.484L238.488 119.849L238.501 119.852L238.514 119.848L241.901 118.851L243.792 119.149L243.827 119.154L243.844 119.124L245.644 115.824L245.652 115.809L245.648 115.791L245.053 112.613L246.138 111.332L246.153 111.314L246.148 111.291L245.773 109.137L247.166 110.437L247.199 110.468L247.232 110.438L250.917 107.251L254.642 107.545ZM277.466 126.237L277.487 126.256L277.515 126.248L280.165 125.462L280.752 127.612L280.765 127.659L280.812 127.648L282.073 127.356L283.219 129.553L280.698 129.65L280.641 129.652L280.651 129.709L281.139 132.438L278.43 131.954L275.355 127.692L276.319 125.187L277.466 126.237ZM273.592 128.462L271.242 128.744L271.055 127.526L272.091 126.962L273.592 128.462Z" fill="#ED1C24" fill-opacity="0.56" stroke="black" stroke-width="0.1"/>
<path id = "AN_KG" d="M187.753 609.383L187.73 609.444L187.795 609.45L191.951 609.845L192.05 612.402V612.419L192.061 612.432L195.361 616.531L195.372 616.544L195.388 616.549L197.242 617.037L196.852 619.191L196.841 619.248L196.898 619.25L199.734 619.347L199.152 621.387L199.148 621.401L199.152 621.416L200.652 626.115L200.66 626.138L200.683 626.146L205.883 628.047L205.9 628.054L205.918 628.047L207.493 627.456L208.961 628.435L210.25 631.014L210.349 633.071L207.975 634.457L207.96 634.466L207.953 634.481L206.561 637.961L203.383 639.153L203.333 639.172L203.354 639.221L204.031 640.771L199.116 642.441L197.439 640.369L197.404 640.326L197.365 640.365L194.064 643.665L194.063 643.664L194.06 643.67L193.76 644.069L193.732 644.106L193.767 644.137L197.167 647.137L197.186 647.153L197.21 647.148L198.175 646.956L199.957 649.826L200 649.8L199.956 649.827L199.966 649.837L208.344 657.615L207.656 660.266L203.575 662.556L203.557 662.566L203.552 662.586L202.757 665.468L198.673 668.158L198.637 668.182L198.654 668.221L199.154 669.32L199.162 669.337L199.178 669.345L202.327 670.92L200.873 673.148L196.702 672.95L196.583 672.944L196.663 673.033L198.453 675.022L198.744 676.38L197.269 677.561L197.251 677.574L197.25 677.597L197.051 680.978L195.493 682.535L183.227 674.957L183.204 674.943L183.181 674.954L180.414 676.14L179.138 674.667L179.088 674.611L177.383 678.021L175.152 676.277L176.249 667.212L178.237 661.047L180.904 660.85L180.924 660.849L180.937 660.834L183.829 657.74L186.399 656.159L187.873 657.142L187.997 657.224L187.947 657.083L186.547 653.083L186.544 653.073L186.536 653.065L183.536 649.866L183.529 649.859L183.521 649.854L181.521 648.954L181.506 648.948L181.49 648.951L178.503 649.548L177.132 649.058L174.642 645.272L174.637 645.266L174.63 645.26L171.73 643.06L171.718 643.051L171.703 643.05L169.703 642.95L169.684 642.949L169.669 642.961L167.568 644.661L167.6 644.7L167.567 644.66L167.559 644.671L165.792 647.124L164.443 645.872L163.348 641.887L163.345 641.876L163.337 641.867L161.337 639.667L158.14 635.271L158.113 635.233L156.639 636.118L156.26 633.465L158.89 634.049L158.914 634.055L158.934 634.037L161.533 631.737L161.546 631.726L161.549 631.709L161.845 630.026L164.221 627.85H168.393L172.388 628.848V628.851L172.401 628.85L176.701 628.75H176.721L176.734 628.737L178.134 627.438L178.135 627.438L178.142 627.428L181.235 622.736L187.525 618.943L187.567 618.918L187.543 618.875L186.049 616.284L185.95 614.497V614.487L185.945 614.478L184.554 611.696L185.444 609.025L186.821 607.647L188.426 607.554L187.753 609.383Z" fill="#ED1C24" fill-opacity="0.56" stroke="black" stroke-width="0.1"/>
<path id = "VN01" d="M107.369 30.5408L108.547 31.8152L108.15 34.3924L108.147 34.4119L108.159 34.4276L110.858 38.4276L110.864 38.4363L110.872 38.4412L112.673 39.6414L112.672 39.6424L112.681 39.6463L114.862 40.5389L115.942 43.0936L114.059 45.7713L114.037 45.8035L114.062 45.8328L117.262 49.533L117.281 49.5545L117.309 49.5486L122.387 48.5526L123.958 49.7313L124.746 51.9969L124.054 53.4793L124.038 53.5154L124.07 53.5399L126.559 55.4324L127.755 58.0213L127.758 58.0272L127.762 58.033L131.262 62.033L131.273 62.0457L131.289 62.0486L132.155 62.241L133.15 69.2068L133.152 69.2215L133.162 69.2332L134.534 70.8006L132.576 73.1483L130.102 73.0496L130.052 73.0477L130.05 73.0984L129.95 75.7986L129.949 75.8182L129.963 75.8338L132.959 79.1287L133.644 80.5984L132.966 81.9549L131.292 82.2508L131.242 82.2596L131.251 82.3084L131.543 83.9647L129.603 84.5467L127.644 83.6639L127.349 81.8914L127.342 81.8465L127.297 81.8504L125.926 81.9471L123.843 78.574L123.832 78.5565L123.813 78.5516L120.871 77.7664L122.145 75.1219L122.16 75.0906L122.136 75.0652L120.241 73.0711L118.746 69.4813L118.738 69.4617L118.719 69.4539L116.319 68.4539L116.32 68.452L116.306 68.45L112.606 67.95L112.571 67.9461L112.555 67.9774L111.285 70.5174L109.266 68.5945L109.939 67.7303L109.969 67.6922L109.931 67.6609L108.339 66.367L105.844 61.3777L105.83 61.3484L105.798 61.3504L103.498 61.45L103.478 61.451L101.052 63.8777L101.05 63.8973L100.854 67.1287L95.7175 65.1531L95.696 65.1453L95.6755 65.1561L94.6042 65.7401L92.4304 64.0604L92.3767 64.0193L92.3533 64.0828L91.7595 65.6619L89.3904 66.7488L87.6052 66.5506L87.573 66.5467L87.5564 66.575L86.8914 67.7147L84.1375 64.5672L84.114 64.5399L84.0808 64.5535L80.698 65.9461L76.9314 64.7576L75.3513 62.4871L75.8494 58.907L75.8523 58.8865L75.8406 58.8709L74.74 57.3709L74.7292 57.3553L74.7117 57.3514L71.4119 56.5516L71.2781 56.5193L71.3601 56.6297L73.0408 58.9041L72.0779 60.7322L69.448 59.368L69.3503 57.4979L69.3484 57.4705L69.325 57.4568L67.2244 56.2567L67.2 56.242L67.1755 56.2567L65.8113 57.035L61.0388 51.0692L61.0398 51.0682L61.032 51.0623L58.448 48.8758L58.2498 45.8963L58.2478 45.8719L58.2273 45.8582L56.5388 44.7654L55.2634 42.0203L56.824 41.1434L56.8347 41.1375L56.8406 41.1287L59.1414 37.8289L59.157 37.8065L59.1462 37.7811L58.1648 35.4256L60.6199 34.3455L60.6414 34.3367L60.6482 34.3143L61.4412 31.7361L64.0828 30.66L66.8601 34.2303L66.8904 34.2693L66.9294 34.2401L68.7966 32.8641L71.0662 34.9373L71.0906 34.9598L71.1208 34.9451L72.5925 34.2576L77.3689 38.0389L77.3816 38.0486L77.3972 38.0496L79.1833 38.1492L81.5505 39.826L81.6501 41.5027L81.6511 41.5164L81.6589 41.5281L84.1589 45.2283L84.1726 45.2488L84.198 45.2498L86.8796 45.3494L88.9666 47.2371L88.9841 47.2537L89.0085 47.2498L91.408 46.8494L91.45 46.8426V44.0359L93.4167 43.3475V43.3484L93.4275 43.3416L96.3269 41.4422L96.3708 41.4139L96.3406 41.3709L95.158 39.6961L96.4304 37.2479L98.4021 37.1502L98.4167 37.1492L98.4285 37.1404L101.129 35.241L101.149 35.2264L101.15 35.202L101.249 32.6121L103.124 28.7635L107.369 30.5408Z" fill="#ED1C24" fill-opacity="0.56" stroke="black" stroke-width="0.1"/>
<mask id="path-18-inside-5_703_16" fill="white">
<path d="M319.5 520.9L321.7 521.5L321.2 523.1L322.9 529.3L320.8 531.3L323.4 531.9L326.2 534.3L325.3 535.8L322.5 536.8L322 538.2L322.9 540.6L325.2 543.1L326.9 542.7L330.2 545.7L331.6 548.5L334.1 547.9L335 549L337 548.6L337.6 549.5L338.6 547.7L340.6 547.3L343.3 545.1L344.6 545.7L348.1 544.1L349.7 542.7L350.5 544L352.2 543.1L354.7 544L357.7 543.1L358.7 542.1L359.8 542.7L359.6 545.8L361 549.6L358.3 551.5L360.1 554.9L357.9 559L357.3 564.9L355.8 566.6L358.2 567.7V569.6L359.7 571.8L358.5 573.4L353.1 574.7L352.6 576.6L354.1 578.8L356.9 579.1L358.5 582.6L359.6 583.2L362.5 582.9L362.3 585.8L366.5 587.4L367.5 589.6L363.8 590.5L362.1 592.4L361 596.7L358.1 596.4L354.6 596.7L351.1 598.3L349.8 600.1L348.9 603.3L346 604.3L344.3 603.9L343.1 604.9L342.4 607.8L341.1 607.6L340.3 609.7L339.6 608.6L336.9 607.8L333.7 609L330.6 609.5L328 613.7L326.9 618.2L325.8 620.1L321.3 619L317.3 620.3L315.3 622.4L311.9 623.3L305.8 626.3L305.6 624L302.6 616.6L305.6 614.7L305.2 608.6L302.7 605L301 605.2L298.4 603.2L300.1 600.2L300.3 598.3L302.2 593.9L303.4 593.5L303.2 590.6L304.4 588L304 588.5L301.8 586.4L301.1 584.6L299 584.4L300.9 582.5L298 580.2L296.3 580.8L295.5 577.6L294.5 579.3L292.7 577.5L292.9 575.8L291.4 574.9L292.1 570.6L297.1 568.7L298.9 564.1L293.6 557.1L289.4 556L289.3 549.8L288.2 543L291.3 541.7L294.9 541.5L298.4 545.5L299.6 543.5L304.4 540.5L304.6 537.3L306.1 533.6L305.5 532L306.6 530.5L305.6 526.2L306 524.5L305.2 518.9L308.4 518.7L314.9 519.8H316.5L319 518.2L319.5 520.9Z"/>
</mask>
<path id = "LĐ_ĐN_BT" d="M319.5 520.9L321.7 521.5L321.2 523.1L322.9 529.3L320.8 531.3L323.4 531.9L326.2 534.3L325.3 535.8L322.5 536.8L322 538.2L322.9 540.6L325.2 543.1L326.9 542.7L330.2 545.7L331.6 548.5L334.1 547.9L335 549L337 548.6L337.6 549.5L338.6 547.7L340.6 547.3L343.3 545.1L344.6 545.7L348.1 544.1L349.7 542.7L350.5 544L352.2 543.1L354.7 544L357.7 543.1L358.7 542.1L359.8 542.7L359.6 545.8L361 549.6L358.3 551.5L360.1 554.9L357.9 559L357.3 564.9L355.8 566.6L358.2 567.7V569.6L359.7 571.8L358.5 573.4L353.1 574.7L352.6 576.6L354.1 578.8L356.9 579.1L358.5 582.6L359.6 583.2L362.5 582.9L362.3 585.8L366.5 587.4L367.5 589.6L363.8 590.5L362.1 592.4L361 596.7L358.1 596.4L354.6 596.7L351.1 598.3L349.8 600.1L348.9 603.3L346 604.3L344.3 603.9L343.1 604.9L342.4 607.8L341.1 607.6L340.3 609.7L339.6 608.6L336.9 607.8L333.7 609L330.6 609.5L328 613.7L326.9 618.2L325.8 620.1L321.3 619L317.3 620.3L315.3 622.4L311.9 623.3L305.8 626.3L305.6 624L302.6 616.6L305.6 614.7L305.2 608.6L302.7 605L301 605.2L298.4 603.2L300.1 600.2L300.3 598.3L302.2 593.9L303.4 593.5L303.2 590.6L304.4 588L304 588.5L301.8 586.4L301.1 584.6L299 584.4L300.9 582.5L298 580.2L296.3 580.8L295.5 577.6L294.5 579.3L292.7 577.5L292.9 575.8L291.4 574.9L292.1 570.6L297.1 568.7L298.9 564.1L293.6 557.1L289.4 556L289.3 549.8L288.2 543L291.3 541.7L294.9 541.5L298.4 545.5L299.6 543.5L304.4 540.5L304.6 537.3L306.1 533.6L305.5 532L306.6 530.5L305.6 526.2L306 524.5L305.2 518.9L308.4 518.7L314.9 519.8H316.5L319 518.2L319.5 520.9Z" fill="#ED1C24" fill-opacity="0.56" stroke="black" stroke-width="0.2" mask="url(#path-18-inside-5_703_16)"/>
<path id = "VN09" d="M246.35 96.3541L246.305 96.3502L244.257 96.1549L244.549 94.3082L244.561 94.234L244.489 94.2516L242.405 94.7477L238.85 93.2653V89.2272L239.626 88.7428L239.646 88.7301L239.65 88.7076L239.947 86.7223L241.536 85.0338L241.544 85.026L241.548 85.0143L242.148 83.0143L242.16 82.9742L242.122 82.9557L236.138 79.9635L235.353 78.0973L236.948 72.9147L236.96 72.8727L236.921 72.8551L235.471 72.1774L236.143 71.025L236.152 71.0114L236.15 70.9948L235.555 65.7379L238.211 65.149L238.234 65.1432L238.244 65.1227L239.44 62.7311L241.734 60.6373L241.755 60.6178L241.749 60.5895L241.352 58.8033L242.546 55.9196L242.559 55.8883L240.361 53.6901L241.259 51.8932L241.239 51.8678L239.656 49.9889L240.342 47.8307L242.3 46.4606L247.16 49.8336L247.954 51.5211L247.978 51.5699L248.025 51.5436L249.605 50.653L252.285 51.4479L252.3 51.4518L252.314 51.4479L254.014 50.9479L254.046 50.9391L254.05 50.9059L254.242 49.2565L255.492 49.4498L255.51 49.4518L255.525 49.444L257.778 48.1686L258.741 50.193L257.46 51.8698L257.408 51.9371L257.492 51.9498L262.163 52.6442L264.144 57.9918L262.759 59.9713L262.734 60.0084L262.767 60.0377L264.331 61.4059L263.66 62.2692L263.641 62.2946L263.656 62.3219L264.546 64.1061L263.451 68.7887L263.448 68.8014L263.452 68.8151L264.153 71.1149L264.181 71.2096L264.24 71.1295L265.924 68.8512L268.073 68.9479L269.159 70.4293L269.178 70.4547L269.209 70.4489L271.799 69.9498L274.656 70.5426L275.051 72.5094L275.058 72.5446L275.094 72.5494L277.394 72.8492L277.429 72.8541L277.445 72.8219L278.026 71.6598L281.354 72.6383L281.546 74.3746L279.273 75.858L279.259 75.8668L279.253 75.8824L278.654 77.4821L278.634 77.5338L278.687 77.5485L282.575 78.6451L285.066 80.9362L285.065 80.9381L285.076 80.944L290.277 83.7438L290.303 83.7584L290.328 83.7408L292.888 81.9684L295.65 85.8151L295.748 88.9537L292.495 89.2506L292.467 89.2526L292.454 89.2789L291.864 90.5592L288.185 91.7526L288.094 91.7819L288.169 91.8395L289.452 92.8258L289.75 95.9049L289.751 95.9127L289.754 95.9196L291.045 98.901L290.474 100.424L288.904 99.443L288.878 99.4547L286.593 100.547L283.207 100.05L283.186 100.047L283.169 100.06L280 102.535L278.048 100.875L277.75 96.8961L277.746 96.8444L277.695 96.8502L274.234 97.2457L273.247 94.3834L273.237 94.3531L273.204 94.3502L271.177 94.1569L272.145 92.2223L272.16 92.192L272.137 92.1666L271.037 90.9664L271.028 90.9567L271.015 90.9528L268.215 90.0524L268.183 90.0416L268.161 90.068L266.69 91.8326L264.133 90.1617L262.739 88.4684L262.722 88.4479L262.696 88.4498L257.995 88.8502L257.974 88.8522L257.961 88.8688L254.961 92.6686L254.942 92.693L254.954 92.7213L255.541 93.9918L253.073 96.9537L250.092 97.4508L250.073 97.4537L250.061 97.4694L248.781 99.1422L246.35 98.4615V96.3541Z" fill="#ED1C24" fill-opacity="0.56" stroke="black" stroke-width="0.1"/>
<mask id="path-20-inside-6_703_16" fill="white">
<path d="M221.4 202.7L219.7 205.5L218.1 206.8L218.2 211.9L216 212.9L215 212.3L212.8 215.4L212.5 218L213.3 222L217.2 224.4V225.8L219.2 228.8L218.5 229.8L219.6 232.3L217.6 233.1L215.9 235.5V237.1L213.4 238.3L212.4 237.7L208.9 238.9L207.1 236.1L203.8 237.2L200.4 237.6L196.4 235.4L194 237.2L192 236.5L192.5 234.6L189.4 232.3V231L185.4 231.3L183.9 229.4L180.2 229.8L180 228.1L178.7 227.5L173.3 227.6L169.7 226L169.3 224.8L167.6 225L165.3 222.5L162.9 221.8L161.2 218.2L159 216.9L156.7 217.7L154.3 214.2L149.9 212.4L148.7 211.1L146.4 211.5L146.1 209.7L143.9 207.3L140.3 206.6L138.7 204.9L135.8 205.5L133.5 204.7L131.3 202.2L129.4 201.4L133 199.4L134.1 197.4L138.6 196.6L140.2 191.3L140.5 189.1L138.2 186.7L138.7 183.5L141.8 184.5L143.6 183.2L146.5 182.3L149.8 182.8L150.7 183.5L155.5 182.7L155.7 184L158.9 185.1L159.5 186.5L162.5 186.9L164.5 185.9L166.2 186.3L167 182.7L169.8 180L175.3 177.6L175.9 174.2L175.6 171.6L178 170L179 168.1L185.1 170.8L187.4 170.9L191.3 172.2L191.9 174.8L190.2 175L189.1 177.5L189.4 180.6L190.8 181.6L190.9 183.4L195.5 185.6L196.4 189.3L195.8 191L197 193.7L198.9 190.9L202.2 194.9L205.9 195.2L207.9 194.2L211.3 198.9L212.7 198.3L215.7 202.1L218.4 201.2L218.7 202.2L221.4 202.7Z"/>
</mask>
<path id = "VN22" d="M221.4 202.7L219.7 205.5L218.1 206.8L218.2 211.9L216 212.9L215 212.3L212.8 215.4L212.5 218L213.3 222L217.2 224.4V225.8L219.2 228.8L218.5 229.8L219.6 232.3L217.6 233.1L215.9 235.5V237.1L213.4 238.3L212.4 237.7L208.9 238.9L207.1 236.1L203.8 237.2L200.4 237.6L196.4 235.4L194 237.2L192 236.5L192.5 234.6L189.4 232.3V231L185.4 231.3L183.9 229.4L180.2 229.8L180 228.1L178.7 227.5L173.3 227.6L169.7 226L169.3 224.8L167.6 225L165.3 222.5L162.9 221.8L161.2 218.2L159 216.9L156.7 217.7L154.3 214.2L149.9 212.4L148.7 211.1L146.4 211.5L146.1 209.7L143.9 207.3L140.3 206.6L138.7 204.9L135.8 205.5L133.5 204.7L131.3 202.2L129.4 201.4L133 199.4L134.1 197.4L138.6 196.6L140.2 191.3L140.5 189.1L138.2 186.7L138.7 183.5L141.8 184.5L143.6 183.2L146.5 182.3L149.8 182.8L150.7 183.5L155.5 182.7L155.7 184L158.9 185.1L159.5 186.5L162.5 186.9L164.5 185.9L166.2 186.3L167 182.7L169.8 180L175.3 177.6L175.9 174.2L175.6 171.6L178 170L179 168.1L185.1 170.8L187.4 170.9L191.3 172.2L191.9 174.8L190.2 175L189.1 177.5L189.4 180.6L190.8 181.6L190.9 183.4L195.5 185.6L196.4 189.3L195.8 191L197 193.7L198.9 190.9L202.2 194.9L205.9 195.2L207.9 194.2L211.3 198.9L212.7 198.3L215.7 202.1L218.4 201.2L218.7 202.2L221.4 202.7Z" fill="#ED1C24" fill-opacity="0.56" stroke="black" stroke-width="0.2" mask="url(#path-20-inside-6_703_16)"/>
<path id = "NB_NĐ_HN" d="M232.251 134.227L232.351 136.402L232.352 136.417L232.358 136.428L233.376 137.954L233.407 137.95L236.463 137.555L237.052 139.713L237.056 139.73L237.07 139.74L238.954 141.128L239.551 144.109L239.557 144.138L239.584 144.147L241.349 144.735L241.25 147.698L241.248 147.744L241.294 147.75L243.762 148.046L244.143 149.188L242.761 150.868L242.726 150.911L242.772 150.942L243.973 151.742L244.003 151.762L244.031 151.739L246.998 149.364L251.067 152.938L251.076 152.945L251.088 152.949L253.388 153.549L253.405 153.553L253.422 153.545L255.889 152.36L257.662 154.231V154.232L258.22 154.884L253.682 157.152L249.99 157.852L249.981 157.854L249.974 157.858L247.773 159.258L247.8 159.3L247.771 159.256L247.763 159.267L241.863 165.867L241.861 165.869L238.389 170.134L237.326 169.458L237.301 169.441L237.273 169.457L235.474 170.557L235.467 170.562L233.907 171.926L231.963 169.399L233.24 167.73L233.245 167.724L233.248 167.716L234.248 164.615L234.269 164.55H228.921L227.135 162.765L227.13 162.759L227.123 162.756L220.924 159.456L220.925 159.455L220.914 159.452L218.426 158.755L214.135 154.465L214.131 154.461L211.531 152.361L211.521 152.353L211.506 152.351L209.935 152.153L208.972 150.039L210.789 149.752L215.773 152.843L215.804 152.861L215.831 152.839L217.831 151.239L217.865 151.212L217.843 151.175L215.825 147.812L219.18 149.346L219.259 149.382L219.25 149.295L218.953 146.331L220.786 145.56L222.363 147.333L222.38 147.353L222.406 147.35L224.105 147.149L224.156 147.144L224.149 147.093L223.75 144.394L223.746 144.37L223.727 144.358L221.038 142.665L219.871 140.137L220.909 139.949L220.94 139.944L220.948 139.913L221.842 136.63L222.815 135.949L225.802 135.85H225.816L225.828 135.841L228.003 134.357L229.616 135.164L229.641 135.128L230.912 133.271L232.251 134.227Z" fill="#ED1C24" fill-opacity="0.56" stroke="black" stroke-width="0.1"/>
<mask id="path-22-inside-7_703_16" fill="white">
<path d="M392.5 516.7L391 517.8L391.4 520L394.3 525.1H395.6L393.7 529.2L392.5 527.1L393.3 525L390.8 523.9L392 523.3L390.9 518.8L389.5 519L386.1 523.3L384.8 523.8L382.7 527.5L383.8 530.4L385 528.7L385.4 532.9L387.9 534.4V536.9L390.2 538L388.4 539L388.2 540.3L386.5 540L385.2 537.5L382.4 535.4L380.7 537.6L383.5 538.6L383.6 541.2L385.5 542.6L383.7 543.4L383.3 546L384.2 547.2L383.4 549.5L384.5 550L383.3 551.8L383.6 554.5L385.7 558.3L387.5 559.6L386.2 561.3L387.3 563.3L385.9 564.4L383.6 563.1L384.2 558.6L383.5 555.3L382.3 553.2L382.2 555.3L383.8 558.1L381.7 561.9L380.6 561.7L379.2 564.6L380.8 566.2L382.8 563.4L383.2 566.5L382.8 567.3L384.9 569.6L382.4 573L380 578.4L378.2 577.3L376.7 577.5L375.7 574.9L374.4 575.2L375.7 576.6L375.5 579.1L374.601 580.3L374.9 588.2L370.7 590.8L367.5 589.6L366.5 587.4L362.3 585.8L362.5 582.9L359.601 583.2L358.5 582.6L356.9 579.1L354.101 578.8L352.6 576.6L353.101 574.7L358.5 573.4L359.7 571.8L358.2 569.6V567.7L355.8 566.6L357.3 564.9L357.9 559L360.101 554.9L358.3 551.5L361 549.6L359.6 545.8L359.8 542.7L358.7 542.1L359.1 539.3L358.2 537L360.4 534L361.3 534.4L363.4 533L367.7 535.5L367.2 533.6L369 530.3L367.4 528.7L369 527.2L369.2 524.9L371.2 523.9L372.9 524.5L373.5 523.3L375.9 521.4L378 521.5L379.6 518.8L380.7 519.7L381.7 517.6L384.8 518.2L386.1 516.9L387.5 517.2L391.4 515.5L392.5 516.7Z"/>
<path d="M389.9 548L387.5 548.7L385.5 547.2L387.3 546.4H389.1L389.9 548Z"/>
<path d="M392.3 527.3L393.6 530.5L392.9 530.8L388.7 527.9L390.5 527.1L392.3 527.3Z"/>
</mask>
<path id = "KH_NT" d="M392.5 516.7L391 517.8L391.4 520L394.3 525.1H395.6L393.7 529.2L392.5 527.1L393.3 525L390.8 523.9L392 523.3L390.9 518.8L389.5 519L386.1 523.3L384.8 523.8L382.7 527.5L383.8 530.4L385 528.7L385.4 532.9L387.9 534.4V536.9L390.2 538L388.4 539L388.2 540.3L386.5 540L385.2 537.5L382.4 535.4L380.7 537.6L383.5 538.6L383.6 541.2L385.5 542.6L383.7 543.4L383.3 546L384.2 547.2L383.4 549.5L384.5 550L383.3 551.8L383.6 554.5L385.7 558.3L387.5 559.6L386.2 561.3L387.3 563.3L385.9 564.4L383.6 563.1L384.2 558.6L383.5 555.3L382.3 553.2L382.2 555.3L383.8 558.1L381.7 561.9L380.6 561.7L379.2 564.6L380.8 566.2L382.8 563.4L383.2 566.5L382.8 567.3L384.9 569.6L382.4 573L380 578.4L378.2 577.3L376.7 577.5L375.7 574.9L374.4 575.2L375.7 576.6L375.5 579.1L374.601 580.3L374.9 588.2L370.7 590.8L367.5 589.6L366.5 587.4L362.3 585.8L362.5 582.9L359.601 583.2L358.5 582.6L356.9 579.1L354.101 578.8L352.6 576.6L353.101 574.7L358.5 573.4L359.7 571.8L358.2 569.6V567.7L355.8 566.6L357.3 564.9L357.9 559L360.101 554.9L358.3 551.5L361 549.6L359.6 545.8L359.8 542.7L358.7 542.1L359.1 539.3L358.2 537L360.4 534L361.3 534.4L363.4 533L367.7 535.5L367.2 533.6L369 530.3L367.4 528.7L369 527.2L369.2 524.9L371.2 523.9L372.9 524.5L373.5 523.3L375.9 521.4L378 521.5L379.6 518.8L380.7 519.7L381.7 517.6L384.8 518.2L386.1 516.9L387.5 517.2L391.4 515.5L392.5 516.7Z" fill="#ED1C24" fill-opacity="0.56"/>
<path d="M389.9 548L387.5 548.7L385.5 547.2L387.3 546.4H389.1L389.9 548Z" fill="#ED1C24" fill-opacity="0.56"/>
<path d="M392.3 527.3L393.6 530.5L392.9 530.8L388.7 527.9L390.5 527.1L392.3 527.3Z" fill="#ED1C24" fill-opacity="0.56"/>
<path d="M392.5 516.7L391 517.8L391.4 520L394.3 525.1H395.6L393.7 529.2L392.5 527.1L393.3 525L390.8 523.9L392 523.3L390.9 518.8L389.5 519L386.1 523.3L384.8 523.8L382.7 527.5L383.8 530.4L385 528.7L385.4 532.9L387.9 534.4V536.9L390.2 538L388.4 539L388.2 540.3L386.5 540L385.2 537.5L382.4 535.4L380.7 537.6L383.5 538.6L383.6 541.2L385.5 542.6L383.7 543.4L383.3 546L384.2 547.2L383.4 549.5L384.5 550L383.3 551.8L383.6 554.5L385.7 558.3L387.5 559.6L386.2 561.3L387.3 563.3L385.9 564.4L383.6 563.1L384.2 558.6L383.5 555.3L382.3 553.2L382.2 555.3L383.8 558.1L381.7 561.9L380.6 561.7L379.2 564.6L380.8 566.2L382.8 563.4L383.2 566.5L382.8 567.3L384.9 569.6L382.4 573L380 578.4L378.2 577.3L376.7 577.5L375.7 574.9L374.4 575.2L375.7 576.6L375.5 579.1L374.601 580.3L374.9 588.2L370.7 590.8L367.5 589.6L366.5 587.4L362.3 585.8L362.5 582.9L359.601 583.2L358.5 582.6L356.9 579.1L354.101 578.8L352.6 576.6L353.101 574.7L358.5 573.4L359.7 571.8L358.2 569.6V567.7L355.8 566.6L357.3 564.9L357.9 559L360.101 554.9L358.3 551.5L361 549.6L359.6 545.8L359.8 542.7L358.7 542.1L359.1 539.3L358.2 537L360.4 534L361.3 534.4L363.4 533L367.7 535.5L367.2 533.6L369 530.3L367.4 528.7L369 527.2L369.2 524.9L371.2 523.9L372.9 524.5L373.5 523.3L375.9 521.4L378 521.5L379.6 518.8L380.7 519.7L381.7 517.6L384.8 518.2L386.1 516.9L387.5 517.2L391.4 515.5L392.5 516.7Z" stroke="black" stroke-width="0.2" mask="url(#path-22-inside-7_703_16)"/>
<path d="M389.9 548L387.5 548.7L385.5 547.2L387.3 546.4H389.1L389.9 548Z" stroke="black" stroke-width="0.2" mask="url(#path-22-inside-7_703_16)"/>
<path d="M392.3 527.3L393.6 530.5L392.9 530.8L388.7 527.9L390.5 527.1L392.3 527.3Z" stroke="black" stroke-width="0.2" mask="url(#path-22-inside-7_703_16)"/>
<mask id="path-23-inside-8_703_16" fill="white">
<path d="M385 476.6L384.7 478.1L386.5 480.9L385.8 481.4L383.9 477.7L384.1 479.3L386.1 482.5L385.7 483.7L389.1 486.6L388.8 489.1L386.3 488.5L387.9 487L385.4 485.3L384.4 487.5L385.3 488.4L384.5 490.3L386.5 491.8L388 491.6L386.3 496.1L387.5 497.9L387.2 495.5L388 495L389 496.8L387.9 498.6V501.9L391.4 508.1L395.7 513.3L394.8 514.9L392.5 516.7L391.4 515.5L387.5 517.2L386.1 516.9L384.8 518.2L381.7 517.6L380.7 519.7L379.6 518.8L378 521.5L375.9 521.4L373.5 523.3L372.9 524.5L371.2 523.9L369.2 524.9L369 527.2L367.4 528.7L369 530.3L367.2 533.6L367.7 535.5L363.4 533L361.3 534.4L360.4 534L358.2 537L359.101 539.3L358.7 542.1L357.7 543.1L354.7 544L352.2 543.1L350.5 544L349.7 542.7L348.101 544.1L344.601 545.7L343.3 545.1L340.601 547.3L338.601 547.7L337.601 549.5L337 548.6L335 549L334.101 547.9L331.601 548.5L330.2 545.7L326.9 542.7L325.2 543.1L322.9 540.6L322 538.2L322.5 536.8L325.3 535.8L326.2 534.3L323.4 531.9L320.8 531.3L322.9 529.3L321.2 523.1L321.7 521.5L319.5 520.9L319 518.2L316.5 519.8H314.9L308.4 518.7L305.2 518.9L302.4 515.2L301.6 511.2L302.601 510.3L301.6 508.1L307.4 494.4L311.8 491.1L315.101 491.4L318.4 489.8L326.601 490.7L328.7 489.1L333.101 489.4L334.7 490.6L338.8 491.1L342.7 492.7L344 496L345.8 496.8L346.5 499.6L348.2 501.2L348.101 503.1L350.8 505.7L350.7 507.4L358.7 509.3L359.3 508.3L362.3 507.5L362 504.6L362.6 502.6L366.3 501.3L367.8 495.7L364.9 491.9L364.1 486.2L361.8 486.9L359.8 485.5L362 481.7L363.8 481.2L366.8 481.6L367.8 483.2L369.5 482.9L372 484.1L375.1 483.5L376.3 482L379.5 480.7L379.7 478.2L381.2 478.3L381.5 476.3L383.6 475.5L385 476.6Z"/>
</mask>
<path id = "ĐL_PY" d="M385 476.6L384.7 478.1L386.5 480.9L385.8 481.4L383.9 477.7L384.1 479.3L386.1 482.5L385.7 483.7L389.1 486.6L388.8 489.1L386.3 488.5L387.9 487L385.4 485.3L384.4 487.5L385.3 488.4L384.5 490.3L386.5 491.8L388 491.6L386.3 496.1L387.5 497.9L387.2 495.5L388 495L389 496.8L387.9 498.6V501.9L391.4 508.1L395.7 513.3L394.8 514.9L392.5 516.7L391.4 515.5L387.5 517.2L386.1 516.9L384.8 518.2L381.7 517.6L380.7 519.7L379.6 518.8L378 521.5L375.9 521.4L373.5 523.3L372.9 524.5L371.2 523.9L369.2 524.9L369 527.2L367.4 528.7L369 530.3L367.2 533.6L367.7 535.5L363.4 533L361.3 534.4L360.4 534L358.2 537L359.101 539.3L358.7 542.1L357.7 543.1L354.7 544L352.2 543.1L350.5 544L349.7 542.7L348.101 544.1L344.601 545.7L343.3 545.1L340.601 547.3L338.601 547.7L337.601 549.5L337 548.6L335 549L334.101 547.9L331.601 548.5L330.2 545.7L326.9 542.7L325.2 543.1L322.9 540.6L322 538.2L322.5 536.8L325.3 535.8L326.2 534.3L323.4 531.9L320.8 531.3L322.9 529.3L321.2 523.1L321.7 521.5L319.5 520.9L319 518.2L316.5 519.8H314.9L308.4 518.7L305.2 518.9L302.4 515.2L301.6 511.2L302.601 510.3L301.6 508.1L307.4 494.4L311.8 491.1L315.101 491.4L318.4 489.8L326.601 490.7L328.7 489.1L333.101 489.4L334.7 490.6L338.8 491.1L342.7 492.7L344 496L345.8 496.8L346.5 499.6L348.2 501.2L348.101 503.1L350.8 505.7L350.7 507.4L358.7 509.3L359.3 508.3L362.3 507.5L362 504.6L362.6 502.6L366.3 501.3L367.8 495.7L364.9 491.9L364.1 486.2L361.8 486.9L359.8 485.5L362 481.7L363.8 481.2L366.8 481.6L367.8 483.2L369.5 482.9L372 484.1L375.1 483.5L376.3 482L379.5 480.7L379.7 478.2L381.2 478.3L381.5 476.3L383.6 475.5L385 476.6Z" fill="#ED1C24" fill-opacity="0.56" stroke="black" stroke-width="0.2" mask="url(#path-23-inside-8_703_16)"/>
<path id = "ĐN_QN" d="M324.073 354.443L324.104 354.462L324.131 354.439L325.604 353.259L328.878 354.945L328.891 354.951L328.905 354.95L332.305 354.649V354.651L332.317 354.646L334.775 353.725L333.576 354.356L333.562 354.364L333.555 354.379L332.055 357.578L332.038 357.613L332.068 357.639L334.869 359.939L334.886 359.953L334.908 359.95L336.908 359.649L336.959 359.642L336.949 359.591L336.652 358.013L338.115 356.062L342.244 357.886L338.288 358.852L338.256 358.859L338.25 358.893L337.95 360.692L337.948 360.707L337.954 360.721L339.954 365.221L339.957 365.228L339.962 365.232L341.862 367.433L341.9 367.4L341.861 367.435L341.872 367.441L345.457 369.931L346.752 374.414L346.8 374.4L346.75 374.415L346.757 374.427L350.457 380.427L350.46 380.431L355.26 386.83L355.265 386.836L355.271 386.841L356.935 388.016L355.856 390.076L355.812 390.162L355.907 390.149L358.106 389.85L358.123 389.847L358.135 389.835L359.164 388.805L359.45 390.708L359.453 390.723L359.463 390.733L361.337 392.804L360.473 394.051L357.297 394.25H357.288L357.279 394.254L354.582 395.452L343.697 397.749L341.604 397.55L341.575 397.547L341.559 397.571L339.659 400.271L339.635 400.306L339.665 400.335L340.847 401.517L340.551 403.781L337.359 408.372L337.349 408.387L337.351 408.404L337.542 410.619L334.921 409.454L334.906 409.448L334.892 409.451L333.291 409.751L333.243 409.76L333.25 409.808L333.748 413.092L333.364 413.956L330.515 414.545L328.334 412.464L328.322 412.452L328.306 412.45L325.627 412.152L323.968 409.809L325.031 408.939L325.044 408.93L325.048 408.914L326.248 404.813L326.26 404.773L326.222 404.755L323.935 403.661L322.842 401.973L322.818 401.937L322.778 401.955L321.094 402.747L313.646 401.059L313.25 397.195L313.243 397.133L313.185 397.152L312.314 397.441L310.147 394.979L310.05 393.497L310.049 393.475L310.03 393.461L308.23 392.061L308.211 392.044L308.186 392.052L305.204 392.945L303.247 391.967L303.05 389.296L303.048 389.269L303.023 389.256L300.224 387.756L300.21 387.748L300.194 387.75L296.739 388.145L295.949 384.489L295.947 384.479L295.941 384.472L294.141 381.872L294.126 381.851H292.325L291.154 380.29L291.748 378.415L291.755 378.393L291.742 378.373L290.142 375.973L290.122 375.944L290.089 375.951L288.773 376.232L289.448 374.115L289.454 374.097L289.446 374.079L288.563 372.119L293.516 369.248L297.605 368.75L297.628 368.747L297.641 368.729L298.841 367.029L298.8 367L298.842 367.029L298.846 367.02L300.84 362.432L301.804 361.659L304.375 363.143L304.43 363.174L304.448 363.114L304.939 361.539L308.044 360.569L307.95 361.796L307.947 361.829L307.978 361.845L312.011 363.861L312.036 363.835L315.416 360.354L317.488 360.849L317.522 360.856L317.542 360.827L319.342 358.027L319.347 358.021L319.349 358.012L320.343 354.033L321.997 353.157L324.073 354.443ZM351.263 365.545L351.887 367.149L349.48 365.277L351.263 365.545Z" fill="#ED1C24" fill-opacity="0.56" stroke="black" stroke-width="0.1"/>
<mask id="path-25-inside-9_703_16" fill="white">
<path d="M365.7 393.6L368.4 396.4L367.7 397.7L369.7 400.2L370.8 400.3L370.5 402L368.9 403.4L369.3 408.5L370.2 411.9L372.9 418.9L375.6 423.7L377.6 426.5L377 427.3L377.8 432.7L376.2 431.4L374.7 428.5L370.9 426.9L368.5 427.5L366.2 427.1L365.6 427.9L362.5 428.3L362.4 431.8H359.5L356.2 434.3L352.3 432.2L351.4 433.8L349.5 434.3L347 433.7L345.4 431.7L343.3 432.6L344.4 435.1L340.1 440.9L340.3 441.8L337.8 441.5L333.5 443.8L331.7 443.1L329 447.8L328.1 447.3L326.9 448.9L324.3 449.6L321.3 447.2L319 447.4L318.5 449.3L314.6 450.9L311.3 450L309.9 452.8L309.5 457.3L307.8 457.6L307 459.4L303.4 460L303.5 461.5L301.1 462.8L300.4 464.4L299.8 460.9L296.9 461.2L295.5 459.6L296.7 456.9L294.5 455.1L297.8 449.4V446.6L297.2 444.9L298.6 442.7L298.7 440.5L301.8 441L302.8 436L303.8 433.8L303.2 432.3L305.2 427.3L305.1 425.8L302.7 422.4L306.6 418.7L306.3 417.4L301.4 414.4L301.1 411.2L304.5 409.8L306.1 410.8L308.1 409.6L307.1 407.9L308.3 405L306.3 402.6L308.1 401.8L307.8 398.2L308.7 396.7L307.6 395.9L307.1 393.5L308.2 392.1L310 393.5L310.1 395L312.3 397.5L313.2 397.2L313.6 401.1L321.1 402.8L322.8 402L323.9 403.7L326.2 404.8L325 408.9L323.9 409.8L325.6 412.2L328.3 412.5L330.5 414.6L333.4 414L333.8 413.1L333.3 409.8L334.9 409.5L337.6 410.7L337.4 408.4L340.6 403.8L340.9 401.5L339.7 400.3L341.6 397.6L343.7 397.8L354.6 395.5L357.3 394.3L360.5 394.1L361.4 392.8L363.3 393.5L365.7 392V393.6Z"/>
</mask>
<path id = "QN_KT" d="M365.7 393.6L368.4 396.4L367.7 397.7L369.7 400.2L370.8 400.3L370.5 402L368.9 403.4L369.3 408.5L370.2 411.9L372.9 418.9L375.6 423.7L377.6 426.5L377 427.3L377.8 432.7L376.2 431.4L374.7 428.5L370.9 426.9L368.5 427.5L366.2 427.1L365.6 427.9L362.5 428.3L362.4 431.8H359.5L356.2 434.3L352.3 432.2L351.4 433.8L349.5 434.3L347 433.7L345.4 431.7L343.3 432.6L344.4 435.1L340.1 440.9L340.3 441.8L337.8 441.5L333.5 443.8L331.7 443.1L329 447.8L328.1 447.3L326.9 448.9L324.3 449.6L321.3 447.2L319 447.4L318.5 449.3L314.6 450.9L311.3 450L309.9 452.8L309.5 457.3L307.8 457.6L307 459.4L303.4 460L303.5 461.5L301.1 462.8L300.4 464.4L299.8 460.9L296.9 461.2L295.5 459.6L296.7 456.9L294.5 455.1L297.8 449.4V446.6L297.2 444.9L298.6 442.7L298.7 440.5L301.8 441L302.8 436L303.8 433.8L303.2 432.3L305.2 427.3L305.1 425.8L302.7 422.4L306.6 418.7L306.3 417.4L301.4 414.4L301.1 411.2L304.5 409.8L306.1 410.8L308.1 409.6L307.1 407.9L308.3 405L306.3 402.6L308.1 401.8L307.8 398.2L308.7 396.7L307.6 395.9L307.1 393.5L308.2 392.1L310 393.5L310.1 395L312.3 397.5L313.2 397.2L313.6 401.1L321.1 402.8L322.8 402L323.9 403.7L326.2 404.8L325 408.9L323.9 409.8L325.6 412.2L328.3 412.5L330.5 414.6L333.4 414L333.8 413.1L333.3 409.8L334.9 409.5L337.6 410.7L337.4 408.4L340.6 403.8L340.9 401.5L339.7 400.3L341.6 397.6L343.7 397.8L354.6 395.5L357.3 394.3L360.5 394.1L361.4 392.8L363.3 393.5L365.7 392V393.6Z" fill="#ED1C24" fill-opacity="0.56" stroke="black" stroke-width="0.2" mask="url(#path-25-inside-9_703_16)"/>
<mask id="path-26-inside-10_703_16" fill="white">
<path d="M295.2 127.4L296.6 127V128.7L295.2 127.4ZM294.9 124.1L297.3 124.7L295.2 125.4L294.9 124.1ZM304.9 121.5L302.1 125.3L301.9 124.8L305.2 120.3L304.9 121.5ZM314.4 117.9L315.7 120L313.4 118.4L314.4 117.9ZM304.5 118.2L304.7 118.9L302.8 122.6L297.7 123.4L301.2 121.1L301.7 119.3L304.1 116.6L304.5 118.2ZM319.6 116.6L317.7 119.4L316.9 119L318.5 116.4L319.6 116.6ZM306.2 113L305.6 114.5L303.6 114.8L304.8 112.8L306.2 113ZM307.1 116.3L306 119.6L305.5 118.6L306.4 115.3L308.6 112.4L307.1 116.3ZM299.2 106.3L297 107.8L297.4 106.3H299.2ZM300.7 105.2L303.8 107.9L304 109.2L307.6 107.8L304.4 111.5L303 111.3L302.5 112.7L296.7 116.5L297.6 112.9L299.7 111.2L298.6 110.7L300.4 108.6L300.7 105.2ZM317.2 101.5L314.1 103.7L312.1 103.6L317.4 100.9L317.2 101.5ZM326.4 99L323.9 100.8L320.3 100.9L319.6 99.9L326.4 99ZM272.1 126.9L271 127.5L270.4 126L267.7 126.8L269 128L267.1 127.9L266.7 125.9L265.3 125.2L266.7 124.5L267.5 122.6L267.4 119.7L261.8 117.6H259.9L258.2 115.8L255.4 116.3L252.5 115.4L251.8 112.8L253.9 112.2L254.7 107.5L256.6 109.1L259.8 110.2L261.2 109.8L268.5 111.2L270.3 109.3L271.8 109.9L274.4 109.5L275.4 110.2L277.5 107.4L277.2 104.6L279.6 103.7L280 102.6L283.2 100.1L286.6 100.6L288.9 99.5L290.5 100.5L291.1 98.9L289.8 95.9L289.5 92.8L288.2 91.8L291.9 90.6L292.5 89.3L295.8 89L296.8 89.1L298.4 87L300.7 85.8L302.2 87.2L301.5 89L304.3 89.5L305.2 88.3L310.8 88.5L317.1 86.1L319.3 86.2L321.5 89.6L322.6 89.5L323.9 91.9H326.3L327.2 94.8L324.9 97.1L325.7 94.7L319.2 92.7L318.8 93.7L315.6 92.7L314.1 93.8L316.5 94.1L314.2 98.8L310.7 98.1L310.4 99.7H309L307.3 104L303.6 101.8L302.8 103.8L299.9 102.6V104.7L296.4 102.9L295.7 104.6L296.1 107.4L295.5 111L297.1 112L296 115.4L296.2 117.4L294.4 118.9L292.5 118.6L288.8 119.3L287.4 121.1L284.2 121.7L281.5 120.6L280.1 121.2L274.9 120.6L275 122.9L270.9 123.4L272.1 126.9Z"/>
</mask>
<path id = "VN13" d="M295.2 127.4L296.6 127V128.7L295.2 127.4ZM294.9 124.1L297.3 124.7L295.2 125.4L294.9 124.1ZM304.9 121.5L302.1 125.3L301.9 124.8L305.2 120.3L304.9 121.5ZM314.4 117.9L315.7 120L313.4 118.4L314.4 117.9ZM304.5 118.2L304.7 118.9L302.8 122.6L297.7 123.4L301.2 121.1L301.7 119.3L304.1 116.6L304.5 118.2ZM319.6 116.6L317.7 119.4L316.9 119L318.5 116.4L319.6 116.6ZM306.2 113L305.6 114.5L303.6 114.8L304.8 112.8L306.2 113ZM307.1 116.3L306 119.6L305.5 118.6L306.4 115.3L308.6 112.4L307.1 116.3ZM299.2 106.3L297 107.8L297.4 106.3H299.2ZM300.7 105.2L303.8 107.9L304 109.2L307.6 107.8L304.4 111.5L303 111.3L302.5 112.7L296.7 116.5L297.6 112.9L299.7 111.2L298.6 110.7L300.4 108.6L300.7 105.2ZM317.2 101.5L314.1 103.7L312.1 103.6L317.4 100.9L317.2 101.5ZM326.4 99L323.9 100.8L320.3 100.9L319.6 99.9L326.4 99ZM272.1 126.9L271 127.5L270.4 126L267.7 126.8L269 128L267.1 127.9L266.7 125.9L265.3 125.2L266.7 124.5L267.5 122.6L267.4 119.7L261.8 117.6H259.9L258.2 115.8L255.4 116.3L252.5 115.4L251.8 112.8L253.9 112.2L254.7 107.5L256.6 109.1L259.8 110.2L261.2 109.8L268.5 111.2L270.3 109.3L271.8 109.9L274.4 109.5L275.4 110.2L277.5 107.4L277.2 104.6L279.6 103.7L280 102.6L283.2 100.1L286.6 100.6L288.9 99.5L290.5 100.5L291.1 98.9L289.8 95.9L289.5 92.8L288.2 91.8L291.9 90.6L292.5 89.3L295.8 89L296.8 89.1L298.4 87L300.7 85.8L302.2 87.2L301.5 89L304.3 89.5L305.2 88.3L310.8 88.5L317.1 86.1L319.3 86.2L321.5 89.6L322.6 89.5L323.9 91.9H326.3L327.2 94.8L324.9 97.1L325.7 94.7L319.2 92.7L318.8 93.7L315.6 92.7L314.1 93.8L316.5 94.1L314.2 98.8L310.7 98.1L310.4 99.7H309L307.3 104L303.6 101.8L302.8 103.8L299.9 102.6V104.7L296.4 102.9L295.7 104.6L296.1 107.4L295.5 111L297.1 112L296 115.4L296.2 117.4L294.4 118.9L292.5 118.6L288.8 119.3L287.4 121.1L284.2 121.7L281.5 120.6L280.1 121.2L274.9 120.6L275 122.9L270.9 123.4L272.1 126.9Z" fill="#ED1C24" fill-opacity="0.56" stroke="black" stroke-width="0.2" mask="url(#path-26-inside-10_703_16)"/>
<path id = "QT_QB" d="M227.572 261.75L228.457 263.226L228.475 263.256L228.509 263.249L230.086 262.953L234.333 266.509L232.859 268.672L232.818 268.731L232.889 268.749L238.988 270.249L239.002 270.252L239.016 270.248L241.502 269.452L244.088 270.147L244.144 270.163L244.15 270.105L244.247 269.323L247.017 266.652L251.567 267.444L252.156 268.524L252.174 268.556L252.209 268.549L254.996 268.067L252.258 272.272L252.253 272.281L252.251 272.29L251.852 274.391L251.849 274.402L251.853 274.414L252.852 277.914L252.855 277.922L254.555 281.521V281.521L254.558 281.526L258.957 288.626L258.959 288.629L262.259 293.229L262.263 293.234L266.663 298.034L266.668 298.038L269.568 300.438L269.57 300.44L278.07 306.94L278.073 306.942L283.651 310.528L283.851 314.403L283.852 314.417L283.859 314.429L286.458 318.228V318.229L290.169 321.939L296.931 327.408L293.061 332.37L293.039 332.397L293.058 332.427L294.033 333.987L291.401 335.937L290.331 335.061L290.314 335.047L290.293 335.05L285.193 335.75L285.178 335.752L285.167 335.763L284.179 336.652L281.293 337.05L281.237 337.058L281.251 337.111L281.651 338.712L281.657 338.734L281.678 338.745L284.056 339.935L284.538 341.96L281.291 342.551L281.264 342.556L281.254 342.581L280.159 345.268L277.869 347.061L277.829 347.092L277.862 347.132L279.294 348.851H277.048L276.95 346.698L276.949 346.673L276.928 346.658L273.736 344.563L272.353 342.391L273.249 338.512L273.257 338.475L273.225 338.457L270.425 336.857L270.373 336.827L270.354 336.884L268.967 340.941L267.61 340.651L267.55 340.639V342.374L265.998 343.537L263.042 341.469L261.653 337.302L262.645 335.222L262.671 335.166L262.611 335.151L258.837 334.257L257.148 329.789L257.05 321.299V321.272L257.027 321.258L255.551 320.273L255.646 318.646L256.904 318.55L256.949 318.547L256.95 318.501L257.05 315.001L257.053 314.893L256.969 314.961L255.39 316.243L251.831 315.057L249.959 312.298L250.644 311.125L250.666 311.087L250.632 311.061L248.737 309.565L245.269 304.709L246.731 303.539L246.803 303.481L246.716 303.452L245.548 303.062L245.45 300.698L245.449 300.659L245.411 300.651L244.011 300.352L243.953 300.339L243.95 300.397L243.853 302.062L242.01 302.644L235.036 297.165L224.139 284.667L224.131 284.66L220.83 282.16L220.816 282.15H218.845L218.55 279.694L218.548 279.68L218.539 279.669L215.353 275.785L215.649 274.209L215.656 274.175L215.626 274.157L213.634 272.962L212.155 271.09L213.735 266.548L216.603 266.45L216.628 266.449L216.643 266.428L218.019 264.36L220.182 265.246L220.198 265.254L220.216 265.248L222.616 264.448L222.666 264.432L222.647 264.383L222.17 263.141L224.506 262.85L224.522 262.848L224.534 262.837L225.721 261.75H227.572Z" fill="#ED1C24" fill-opacity="0.56" stroke="black" stroke-width="0.1"/>
<path id = "CT_ST_HG" d="M211.559 642.33L212.655 644.522L212.659 644.53L212.665 644.536L215.564 647.336L215.571 647.341L220.563 650.735L223.258 654.627L223.257 654.629L223.268 654.638L225.768 656.738L225.772 656.742L229.767 659.338L234.061 664.432L234.06 664.434L234.071 664.441L236.067 665.838L242.465 672.135L242.464 672.136L242.474 672.142L245.13 673.814L242.868 677.257L240.585 677.952L240.565 677.958L240.556 677.977L238.456 681.877L238.441 681.904L238.459 681.93L239.631 683.589L236.987 685.547L235.909 685.352L235.896 685.349L235.885 685.353L225.584 688.752L225.582 688.753L222.54 689.931L221.854 685.526L224.123 684.344L224.165 684.322L224.145 684.278L223.245 682.379L223.21 682.304L223.16 682.37L221.993 683.925L219.935 681.964L219.909 681.939L219.878 681.955L216.69 683.548L214.328 683.252L213.542 682.072L213.533 682.06L213.521 682.054L209.053 680.067L209.55 674.905L209.551 674.896L209.548 674.886L209.147 673.585L209.137 673.55H205.013L203.622 672.855L203.608 672.849L203.594 672.851L201 673.138L202.442 670.928L202.473 670.881L202.423 670.855L199.238 669.263L198.764 668.218L202.827 665.542L202.843 665.531L202.848 665.514L203.642 662.633L207.725 660.344L207.743 660.333L207.749 660.312L208.449 657.612L208.456 657.583L208.435 657.562L200.039 649.767L198.243 646.874L198.225 646.845L198.19 646.852L197.214 647.046L193.867 644.093L194.14 643.73L197.396 640.475L199.061 642.531L199.083 642.559L199.115 642.547L204.115 640.847L204.167 640.83L204.146 640.779L203.467 639.228L206.589 638.057L211.559 642.33Z" fill="#ED1C24" fill-opacity="0.56" stroke="black" stroke-width="0.1"/>
<mask id="path-29-inside-11_703_16" fill="white">
<path d="M131.6 84L132.3 85.5H136.9L139.7 86.9L143 86.2L144.5 86.6L145.7 85.4L151.5 86.4L149.1 88.9L148.5 91.4L149.3 92.7L148.8 95.4L151.1 98.4L151.8 97.9L155.3 100L155.4 100.8L158 101.2L160.6 98.2L163.4 97.7L166.1 99.7L168 99.9L168.2 98.8L170.3 98.5L171 101.2L172.4 102.5L174.1 102.1L175.5 103.3L175.4 105.6L176.5 108.3L176 111.2L178.9 113.1L176 114.8L176.7 117.2L180.2 122L181.9 123.2L183.3 126.3L183 127.8L184.2 128.5L182.6 130.8L182.9 132.3L177.4 130.1L175.6 130.7L175.7 135.8L173.9 136.5L173.6 139.1L170.6 139.6L169.8 138.2L167.9 138.5L165.7 135.7L162.3 132.6L160.1 133.4L159 132.7L158.4 130.1L156.6 128.5L155.3 128.7L150.9 125.5L151.3 124.9L148.6 122.2L147.6 123.6L146.8 122L144.3 120.7L141.5 121.1L140.3 119.7L137.7 121.1L136.7 123.4L133.9 122.9L132.6 123.8L130.4 123.2L128.2 125.4L126.2 125.2L124.6 128.2L125.4 131L122.6 131.7L122.7 135L120.2 135.3L119.4 133.4L116.1 131.2L111.8 130.7L109.7 127.1L108.6 128.5L105.8 129.2L98.3999 126.3L97.8999 123.8L101.3 123.2L101.8 121.1L100.8 115.4L102.5 113.9L105.7 115.6L107.8 115.2L106.5 111.2L108.2 110.4L108 103.2L105.3 102.3L106 100.8L103.6 97.8L106.3 97.1L108.7 97.3L109.5 93.3L112.2 92.2L112.4 90.7L114.2 87.5L113.5 86.6L116.1 84.8L114.2 80.9L112.5 76L110.4 73.4L111.3 70.6L112.6 68L116.3 68.5L118.7 69.5L120.2 73.1L122.1 75.1L120.8 77.8L123.8 78.6L125.9 82L127.3 81.9L127.6 83.7L129.6 84.6L131.6 84Z"/>
</mask>
<path id = "VN05" d="M131.6 84L132.3 85.5H136.9L139.7 86.9L143 86.2L144.5 86.6L145.7 85.4L151.5 86.4L149.1 88.9L148.5 91.4L149.3 92.7L148.8 95.4L151.1 98.4L151.8 97.9L155.3 100L155.4 100.8L158 101.2L160.6 98.2L163.4 97.7L166.1 99.7L168 99.9L168.2 98.8L170.3 98.5L171 101.2L172.4 102.5L174.1 102.1L175.5 103.3L175.4 105.6L176.5 108.3L176 111.2L178.9 113.1L176 114.8L176.7 117.2L180.2 122L181.9 123.2L183.3 126.3L183 127.8L184.2 128.5L182.6 130.8L182.9 132.3L177.4 130.1L175.6 130.7L175.7 135.8L173.9 136.5L173.6 139.1L170.6 139.6L169.8 138.2L167.9 138.5L165.7 135.7L162.3 132.6L160.1 133.4L159 132.7L158.4 130.1L156.6 128.5L155.3 128.7L150.9 125.5L151.3 124.9L148.6 122.2L147.6 123.6L146.8 122L144.3 120.7L141.5 121.1L140.3 119.7L137.7 121.1L136.7 123.4L133.9 122.9L132.6 123.8L130.4 123.2L128.2 125.4L126.2 125.2L124.6 128.2L125.4 131L122.6 131.7L122.7 135L120.2 135.3L119.4 133.4L116.1 131.2L111.8 130.7L109.7 127.1L108.6 128.5L105.8 129.2L98.3999 126.3L97.8999 123.8L101.3 123.2L101.8 121.1L100.8 115.4L102.5 113.9L105.7 115.6L107.8 115.2L106.5 111.2L108.2 110.4L108 103.2L105.3 102.3L106 100.8L103.6 97.8L106.3 97.1L108.7 97.3L109.5 93.3L112.2 92.2L112.4 90.7L114.2 87.5L113.5 86.6L116.1 84.8L114.2 80.9L112.5 76L110.4 73.4L111.3 70.6L112.6 68L116.3 68.5L118.7 69.5L120.2 73.1L122.1 75.1L120.8 77.8L123.8 78.6L125.9 82L127.3 81.9L127.6 83.7L129.6 84.6L131.6 84Z" fill="#ED1C24" fill-opacity="0.56" stroke="black" stroke-width="0.2" mask="url(#path-29-inside-11_703_16)"/>
<mask id="path-30-inside-12_703_16" fill="white">
<path d="M236.1 569.7L238.2 570.1L239.8 569.3L242.9 570.6L245.1 573L248.9 571.8L252.3 573.2L254.1 578.1L251.4 579.6L251 581.8L248.4 583.8L247.9 586.3L246.3 589.2L247.7 591.9L247.5 593.6L248.8 594.3L249.3 596.7L251.2 597.5L252.1 599.1L251.1 601.2L250.4 605.2L247.8 606L248.5 607.1L250.4 606.9L252.4 608.4L256.3 610.3L254.6 615.9L253 617.3L255.6 618.9L257.3 622.5L259.7 622L261.3 623.7L263.4 622.2L265.6 623.4L266.5 628.5L265.8 629.8L263.3 632.6L261.2 630.7L260.6 632L257.4 633.9L256 632.9L253.7 634.6L250.5 633L252.4 632L250 630L248.4 630.2V628.8L246 626.3L244.4 625.5L235.6 626V628.6L228 627.9L226.5 627.8L222.8 623L220.3 622L211.4 613.8L212.2 613.7L210.8 610.8L207.6 609.3L206.8 607.9H208.7L214.9 606.2L217.2 604.6L220.5 604.2L222.1 607.6L224.3 610.4L223.7 612.3L227.5 613.3L228 609.6L233.7 614.3L238.5 614.5L239.8 615.7L239.7 613.3L237.2 609.7L237.6 606.7L238.4 606.5L240.4 606.8L239.8 603.3L238.2 600.8L235.8 602.3L234.9 600.8L231.7 598.7L231.4 596.6L228.6 596L226.5 594L226.4 592.2L224.4 592.1L225.1 588.5L224.5 587.3L226.1 584.2L224.8 583.4L225.3 580L224.2 578.4L222 578.2L221.8 575.7L225.2 573L228.6 574.8L231.3 570.4L231.4 568.6L234.2 568.2L236.1 569.7Z"/>
</mask>
<path id = "TN_LA" d="M236.1 569.7L238.2 570.1L239.8 569.3L242.9 570.6L245.1 573L248.9 571.8L252.3 573.2L254.1 578.1L251.4 579.6L251 581.8L248.4 583.8L247.9 586.3L246.3 589.2L247.7 591.9L247.5 593.6L248.8 594.3L249.3 596.7L251.2 597.5L252.1 599.1L251.1 601.2L250.4 605.2L247.8 606L248.5 607.1L250.4 606.9L252.4 608.4L256.3 610.3L254.6 615.9L253 617.3L255.6 618.9L257.3 622.5L259.7 622L261.3 623.7L263.4 622.2L265.6 623.4L266.5 628.5L265.8 629.8L263.3 632.6L261.2 630.7L260.6 632L257.4 633.9L256 632.9L253.7 634.6L250.5 633L252.4 632L250 630L248.4 630.2V628.8L246 626.3L244.4 625.5L235.6 626V628.6L228 627.9L226.5 627.8L222.8 623L220.3 622L211.4 613.8L212.2 613.7L210.8 610.8L207.6 609.3L206.8 607.9H208.7L214.9 606.2L217.2 604.6L220.5 604.2L222.1 607.6L224.3 610.4L223.7 612.3L227.5 613.3L228 609.6L233.7 614.3L238.5 614.5L239.8 615.7L239.7 613.3L237.2 609.7L237.6 606.7L238.4 606.5L240.4 606.8L239.8 603.3L238.2 600.8L235.8 602.3L234.9 600.8L231.7 598.7L231.4 596.6L228.6 596L226.5 594L226.4 592.2L224.4 592.1L225.1 588.5L224.5 587.3L226.1 584.2L224.8 583.4L225.3 580L224.2 578.4L222 578.2L221.8 575.7L225.2 573L228.6 574.8L231.3 570.4L231.4 568.6L234.2 568.2L236.1 569.7Z" fill="#ED1C24" fill-opacity="0.56" stroke="black" stroke-width="0.2" mask="url(#path-30-inside-12_703_16)"/>
<path id = "HY_TB" d="M236.769 119.44L238.246 121.114L236.951 128.091L236.946 128.114L236.962 128.132L238.062 129.433L238.067 129.44L238.076 129.444L240.956 130.934L241.451 133.012L241.456 133.032L241.476 133.043L243.575 134.243L243.596 134.256L243.618 134.246L246.984 132.859L247.462 133.433L247.489 133.465L247.525 133.443L250.135 131.896L249.851 133.894L249.847 133.922L249.87 133.939L251.659 135.33L253.17 138.352L253.202 138.35L255.502 138.25H255.512L255.521 138.246L259.497 136.456L260.544 137.026L260.254 138.572L258.168 140.362L258.146 140.381L258.151 140.41L259.248 146.198L258.353 149.587L258.35 149.597L258.351 149.606L258.847 153.08L257.702 154.13L255.937 152.266L255.912 152.239L255.879 152.255L253.396 153.446L251.122 152.854L247.033 149.263L247.002 149.234L246.969 149.261L243.997 151.638L242.874 150.89L244.239 149.232L244.257 149.211L244.248 149.185L243.848 147.984L243.837 147.954L243.806 147.95L241.351 147.655L241.45 144.702L241.451 144.665L241.416 144.652L239.643 144.061L239.049 141.09L239.045 141.071L239.029 141.06L237.143 139.67L236.548 137.487L236.537 137.445L236.493 137.45L233.424 137.846L232.449 136.383L232.35 134.198L232.349 134.174L232.329 134.159L230.93 133.159L230.913 133.147L230.893 133.15L229.644 133.342L229.25 129.794L229.247 129.765L229.219 129.753L227.24 128.962L226.557 126.814L227.633 125.837L227.668 125.805L227.639 125.769L225.865 123.601L226.637 122.733L226.65 122.719L226.649 122.698L226.552 120.056L229.094 120.35L229.161 120.357L229.148 120.291L228.957 119.234L230.81 118.648L234.788 118.351L236.769 119.44Z" fill="#ED1C24" fill-opacity="0.56" stroke="black" stroke-width="0.1"/>
<path id = "TN_BK" d="M220.036 34.8955L217.663 37.5664L217.642 37.5898L217.654 37.6191L218.554 39.7197L218.56 39.7344L218.573 39.7422L220.161 40.7344L221.355 43.2217L221.368 43.248L221.396 43.25L224.287 43.4492L226.58 44.4463L226.604 44.457L226.626 44.4434L233.011 40.5518L234.568 40.7461L236.351 43.8125V45.7812L235.161 47.2686L235.145 47.29L235.152 47.3154L235.853 49.416L235.867 49.459L235.911 49.4492L238.188 48.9541L239.564 50.0361L241.141 51.9062L240.255 53.6777L240.239 53.71L242.44 55.9111L241.254 58.7803L241.248 58.7949L241.251 58.8105L241.645 60.5811L239.366 62.6631L239.359 62.6699L239.355 62.6777L238.165 65.0557L235.489 65.6514L235.445 65.6611L235.45 65.7061L236.048 70.9893L235.357 72.1748L235.33 72.2227L235.379 72.2451L236.839 72.9268L235.252 78.085L235.247 78.1025L235.254 78.1191L236.054 80.0195L236.061 80.0361L236.077 80.0449L242.039 83.0254L241.455 84.9746L239.864 86.666L239.854 86.6777L239.851 86.6924L239.563 88.5996L238.533 87.6631L238.518 87.6484L238.496 87.6504L234.496 87.9502L234.475 87.9521L234.461 87.9688L232.161 90.8691L232.12 90.9209L232.181 90.9463L233.335 91.4268L232.654 93.0801L232.649 93.0908L232.65 93.1025L232.85 96.79L231.878 99.0244L228.928 97.0576L228.876 97.0234L228.854 97.082L227.668 100.24L226.412 99.9512L226.363 99.9404L226.352 99.9883L225.761 102.446L224.537 102.353L223.848 99.9863L223.839 99.9551L223.808 99.9502L221.208 99.5498L221.174 99.5449L221.157 99.5742L220.498 100.703L218.842 98.0732L218.834 98.0605L218.82 98.0537L214.13 95.958L209.639 90.3691L209.629 90.3564L209.613 90.3525L208.926 90.1553L206.745 87.9746L205.854 84.1084L208.141 80.7285L208.176 80.6768L208.118 80.6533L206.65 80.0654L206.748 77.5312L208.322 76.7451L208.361 76.7256L208.347 76.6836L207.856 75.3125L209.436 73.7354L209.449 73.7217L209.45 73.7021L209.55 71.2021L209.551 71.1748L209.529 71.1592L207.142 69.4678L206.448 66.9863L206.445 66.9766L206.439 66.9688L205.25 65.4814V63.415L206.543 61.3262L206.585 61.2578L206.505 61.25L205.527 61.1523L203.75 58.6836L203.848 56.3271L206.428 54.6416L206.458 54.6211L206.448 54.5859L206.154 53.5127L207.536 52.0342L207.548 52.0225L207.55 52.0059L207.846 49.332L209.321 48.6445L209.344 48.6348L209.349 48.6094L209.844 46.2285L211.53 44.9404L211.553 44.9229L211.55 44.8945L211.25 42.1943L211.247 42.1719L211.228 42.1582L210.039 41.3662L208.46 37.7119L210.12 36.1475L211.703 36.0498L211.733 36.0479L211.745 36.0215L212.438 34.5352L214.809 33.251L216.494 33.4502L216.508 33.4521L216.521 33.4463L218.481 32.5625L220.036 34.8955Z" fill="#ED1C24" fill-opacity="0.56" stroke="black" stroke-width="0.1"/>
<path id = "VN21" d="M181.053 137.028L181.15 137.906L181.152 137.925L181.167 137.938L184.067 140.438L184.089 140.457L184.115 140.448L186.896 139.553L190.265 141.238L191.058 142.526L191.069 142.546L191.091 142.549L193.871 143.046L195.645 145.509L195.353 146.486L195.34 146.525L195.377 146.545L199.576 148.744V148.745L199.586 148.748L202.286 149.547L202.309 149.555L202.329 149.541L203.309 148.855L207.084 150.147L207.093 150.15H207.103L208.868 150.051L209.854 152.22L209.866 152.246L209.894 152.25L211.479 152.448L214.064 154.535V154.536L218.364 158.836L218.374 158.844L218.387 158.848L220.881 159.547L227.069 162.84L228.879 164.65H234.131L233.154 167.676L231.864 169.364L228.771 171.459L228.746 171.476L228.751 171.507L229.048 173.39L227.456 176.276L227.45 176.287V178.785L225.778 181.44L224.916 181.153L224.878 181.14L224.857 181.174L222.857 184.474L222.853 184.482L222.851 184.492L221.451 192.691H221.449L221.45 192.705L221.747 195.781L220.364 197.165L220.342 197.187L220.354 197.217L221.945 201.398L221.37 202.643L218.739 202.156L218.448 201.185L218.433 201.136L218.384 201.153L215.717 202.041L212.739 198.269L212.716 198.239L212.681 198.255L211.316 198.838L207.94 194.171L207.916 194.136L207.878 194.155L205.89 195.148L202.225 194.851L198.938 190.868L198.896 190.817L198.858 190.872L197.009 193.596L195.853 190.997L196.447 189.317L196.452 189.302L196.448 189.289L195.549 185.589L195.543 185.565L195.521 185.555L190.948 183.368L190.85 181.597L190.849 181.573L190.829 181.559L189.447 180.573L189.15 177.507L190.234 175.046L191.906 174.849L191.961 174.843L191.948 174.789L191.349 172.189L191.343 172.162L191.315 172.153L187.416 170.852L187.4 170.9L187.416 170.85H187.402L185.109 170.75L179.068 168.075L180.141 165.929L182.637 163.234L182.676 163.192L182.629 163.159L179.359 160.88L179.646 160.118L179.682 160.026L179.587 160.051L176.707 160.845L172.126 158.057L172.115 158.05H172.103L169.713 157.95L166.824 156.356L166.8 156.4L166.825 156.354L166.812 156.351L164.651 155.86L165.048 149.928L167.911 148.051L169.293 148.25L169.407 148.266L169.341 148.172L166.741 144.471L166.718 144.439L166.682 144.454L165.182 145.053L165.166 145.06L165.157 145.074L163.77 147.351L160.497 147.55L160.459 147.552L160.451 147.589L160.256 148.464L157.5 149.744L154.758 148.471L155.148 146.912L155.157 146.879L155.128 146.859L153.558 145.778L154.042 143.937L157.717 142.547L157.718 142.548L157.729 142.542L160.229 140.841L160.241 140.833L160.247 140.818L161.136 138.445L164.007 138.049L164.027 138.047L164.04 138.03L165.701 135.782L167.86 138.531L167.879 138.554L167.908 138.549L169.773 138.255L170.557 139.625L170.574 139.655L170.608 139.649L173.608 139.149L173.646 139.143L173.649 139.106L173.945 136.535L175.718 135.846V135.847L178.092 134.956L181.053 137.028Z" fill="#ED1C24" fill-opacity="0.56" stroke="black" stroke-width="0.1"/>
<path id = "VN26" d="M302.668 332.039L302.671 332.041L307.77 335.64V335.641L307.78 335.646L310.275 336.743L314.967 340.237V340.238L320.766 345.338L320.772 345.341L324.972 348.141L324.984 348.149L324.998 348.15L326.897 348.25L326.936 348.252L326.948 348.214L327.313 347.026L330.262 352.259L327.925 350.857L327.788 350.775L327.854 350.921L328.854 353.121L328.871 353.157L328.911 353.149L330.799 352.751L335.3 353.421L332.289 354.55L328.91 354.848L325.623 353.156L325.594 353.141L325.569 353.161L324.096 354.339L322.026 353.057L322.001 353.043L321.976 353.056L320.277 353.956L320.256 353.966L320.251 353.988L319.252 357.981L317.476 360.743L315.412 360.252L315.384 360.245L315.364 360.265L311.989 363.739L308.051 361.77L308.15 360.504L308.156 360.43L308.085 360.453L304.885 361.453L304.86 361.461L304.852 361.485L304.371 363.024L301.825 361.556L301.795 361.54L301.769 361.561L300.818 362.321L299.545 359.579L299.528 359.541L299.487 359.551L294.618 360.843L292.039 357.768L292 357.8L292.04 357.767L292.03 357.759L290.129 356.36L290.116 356.349L290.098 356.35L287.713 356.449L286.142 355.369L285.451 353.094L285.75 350.606L285.753 350.576L285.728 350.559L282.428 348.259L282.411 348.247L282.39 348.251L279.418 348.845L277.971 347.107L280.231 345.339L280.241 345.332L280.247 345.319L281.335 342.644L284.609 342.049L284.661 342.04L284.649 341.989L284.149 339.888L284.143 339.866L284.123 339.855L281.743 338.665L281.362 337.142L284.207 336.75L284.222 336.748L284.233 336.737L285.222 335.846L290.286 335.152L291.369 336.039L291.398 336.063L291.429 336.041L294.129 334.041L294.167 334.012L294.142 333.973L293.16 332.403L297.007 327.47L302.668 332.039Z" fill="#ED1C24" fill-opacity="0.56" stroke="black" stroke-width="0.1"/>
<path id = "ĐT_TG" d="M240.49 638.65V638.649L240.479 638.655L237.587 640.05L234.309 640.249L232.424 639.356L229.825 637.857L229.795 637.84L229.769 637.861L227.075 640.055L225.687 640.452L225.7 640.5L225.686 640.45L225.674 640.458L224.874 640.958L224.827 640.986L224.86 641.03L226.822 643.581L224.778 644.555L224.753 644.566L224.75 644.594L224.555 646.25H221.315L217.828 643.859L217.786 643.83L217.758 643.873L215.59 647.221L212.74 644.469L211.645 642.277L211.64 642.269L211.632 642.262L206.659 637.985L208.04 634.533L210.426 633.143L210.452 633.128L210.45 633.098L210.35 630.998V630.987L209.039 628.366L207.507 627.345L207.482 627.354L205.899 627.946L200.74 626.061L199.252 621.398L199.865 619.252L199.802 619.25L196.959 619.152L197.349 617.009L197.357 616.964L197.312 616.951L195.428 616.455L192.148 612.381L192.052 609.86L195.583 610.547L199.075 612.543L199.113 612.565L199.14 612.53L203.319 606.957L206.767 607.942L207.557 609.324L207.564 609.338L207.578 609.345L210.762 610.837L212.125 613.658L211.395 613.75L211.287 613.764L211.366 613.837L220.266 622.037L220.272 622.043L220.281 622.047L222.769 623.041L226.46 627.83L226.475 627.849L226.497 627.85L227.995 627.949V627.95L235.595 628.649L235.649 628.654V626.047L244.389 625.55L245.971 626.341L248.351 628.819V630.257L248.406 630.25L249.984 630.052L252.311 631.99L250.477 632.956L250.391 633.001L250.478 633.045L253.678 634.645L253.705 634.658L253.729 634.64L255.999 632.962L257.371 633.941L257.397 633.96L257.426 633.943L260.625 632.043L260.639 632.035L260.645 632.021L261.216 630.782L263.267 632.637L263.304 632.671L263.337 632.633L265.795 629.879L268.856 634.124L270.139 637.876L268.076 638.956L268.061 638.964L268.054 638.98L267.454 640.381L267.449 640.392L267.45 640.402L267.647 644.545L266.517 644.451L262.927 642.257L262.919 642.253L262.911 642.251L256.418 640.853L253.226 638.957V638.956L253.219 638.954L249.519 637.454L249.505 637.448L249.489 637.451L245.308 638.347L244.526 637.858L244.51 637.848L244.49 637.852L240.49 638.65Z" fill="#ED1C24" fill-opacity="0.56" stroke="black" stroke-width="0.1"/>
<mask id="path-36-inside-13_703_16" fill="white">
<path d="M258.1 583.6L256.7 584.8L256.5 586.9L257.7 587.7L260 586.9L260.2 588.1L263 588.5L266.8 583.7L266.6 582.7L268.8 581.9L269.3 583.4L267.4 585.9L268.2 587.2L271.5 587.5L271.7 590.5L274.5 588.5L276 589.1L275.5 590.9L274.3 593.9L274.1 596.3L275.3 596.5L276.9 598.5L276.8 600.4L274.2 604.5L272.4 604.6L270.1 602.5L269.4 604.3L267.7 605.7L268.7 606.8L267.1 607.9L270.8 610.3L271.6 613.1L272.7 614.4L272.5 616.8L270 616.2L267.3 618.1L266.8 620.3L270.1 623.5L272.5 622.5L274.3 624.5L277.7 625.9L278 628.3L279.1 628.5L279.7 625.3L278.3 623.4L280.4 622.2L283 622.3L284.8 620.8L285 617.8L287.5 616.6L292.8 617.4L292.7 620.7L295.3 621.1L295.8 618.6L300 615.1L302.6 616.6L305.6 624L305.8 626.3L303.1 629.4L300.7 629.9L299.6 631.2L294.7 631.5L290.7 635.4L288.9 634.3L287.1 634.5L283.6 636.6L282.5 638.2L281.4 636.7L283.6 634.2L285.2 633.8L285.616 631.994L284.1 633.7L284.3 631.9H285.639L285.8 631.2L283.5 630.8L284.1 632.4L282.4 633L280.5 630.9L278.2 631L277.2 630.7L276 633.1L277.1 634.2L272.7 635.6L272.1 637.3L270.2 637.9L268.9 634.1L265.8 629.8L266.5 628.5L265.6 623.4L263.4 622.2L261.3 623.7L259.7 622L257.3 622.5L255.6 618.9L253 617.3L254.6 615.9L256.3 610.3L252.4 608.4L250.4 606.9L248.5 607.1L247.8 606L250.4 605.2L251.1 601.2L252.1 599.1L251.2 597.5L249.3 596.7L248.8 594.3L247.5 593.6L247.7 591.9L246.3 589.2L247.9 586.3L248.4 583.8L251 581.8L254 581.6L258.1 583.6Z"/>
</mask>
<path id = "HCM_BRVT_BD" d="M258.1 583.6L256.7 584.8L256.5 586.9L257.7 587.7L260 586.9L260.2 588.1L263 588.5L266.8 583.7L266.6 582.7L268.8 581.9L269.3 583.4L267.4 585.9L268.2 587.2L271.5 587.5L271.7 590.5L274.5 588.5L276 589.1L275.5 590.9L274.3 593.9L274.1 596.3L275.3 596.5L276.9 598.5L276.8 600.4L274.2 604.5L272.4 604.6L270.1 602.5L269.4 604.3L267.7 605.7L268.7 606.8L267.1 607.9L270.8 610.3L271.6 613.1L272.7 614.4L272.5 616.8L270 616.2L267.3 618.1L266.8 620.3L270.1 623.5L272.5 622.5L274.3 624.5L277.7 625.9L278 628.3L279.1 628.5L279.7 625.3L278.3 623.4L280.4 622.2L283 622.3L284.8 620.8L285 617.8L287.5 616.6L292.8 617.4L292.7 620.7L295.3 621.1L295.8 618.6L300 615.1L302.6 616.6L305.6 624L305.8 626.3L303.1 629.4L300.7 629.9L299.6 631.2L294.7 631.5L290.7 635.4L288.9 634.3L287.1 634.5L283.6 636.6L282.5 638.2L281.4 636.7L283.6 634.2L285.2 633.8L285.616 631.994L284.1 633.7L284.3 631.9H285.639L285.8 631.2L283.5 630.8L284.1 632.4L282.4 633L280.5 630.9L278.2 631L277.2 630.7L276 633.1L277.1 634.2L272.7 635.6L272.1 637.3L270.2 637.9L268.9 634.1L265.8 629.8L266.5 628.5L265.6 623.4L263.4 622.2L261.3 623.7L259.7 622L257.3 622.5L255.6 618.9L253 617.3L254.6 615.9L256.3 610.3L252.4 608.4L250.4 606.9L248.5 607.1L247.8 606L250.4 605.2L251.1 601.2L252.1 599.1L251.2 597.5L249.3 596.7L248.8 594.3L247.5 593.6L247.7 591.9L246.3 589.2L247.9 586.3L248.4 583.8L251 581.8L254 581.6L258.1 583.6Z" fill="#ED1C24" fill-opacity="0.56" stroke="black" stroke-width="0.2" mask="url(#path-36-inside-13_703_16)"/>
<mask id="path-37-inside-14_703_16" fill="white">
<path fill-rule="evenodd" clip-rule="evenodd" d="M200.7 3.7002L202.9 5.5L203.5 4.5L206.5 7.90039L206.9 9.5L209.4 10.2002L210.3 11.5996L209.9 13.5996L208.4 14L206.4 19.2002L200.9 20.0996L200.3 22.4004L197.7 23.9004L197.5 25.7002L195.8 26.2002L201.4 28.9004L205.4 31.7998L206.9 34.2998L206.8 37.7002H208.4L210 41.4004L211.2 42.2002L211.5 44.9004L209.8 46.2002L209.3 48.5996L207.8 49.2998L207.5 52L206.1 53.5L206.4 54.5996L203.8 56.2998L203.7 58.7002L205.5 61.2002L206.5 61.2998L205.2 63.4004V65.5L206.4 67L207.1 69.5L209.5 71.2002L209.4 73.7002L207.8 75.2998L208.3 76.7002L206.7 77.5L206.6 80.0996L208.1 80.7002L205.8 84.0996L206.7 88L208.9 90.2002L207.8 92.2002L203.2 94L200.6 92.7002L198.5 93.5996L195.7 91.5L194.2 86L191.5 84.5996L190.5 84.9004L187.2 83.0996L185.7 81.7998L187.8 78.4004L183.7 74.0996L183.9 72.2998L182.5 72.5996L182.9 67L181.2 67.7002L180.2 66.5L177.6 65.5996L176.6 64.2998L175.8 60L171.4 60.5996L169.9 59.2002L169.8 56.4004L164.101 54.9004L163.3 56.7002L161.7 57.2002L161.2 55.5L162.9 54.2002L162.8 51.5996L158.7 48.2998L156.7 46.2998L157.9 45.2002L155.101 43L155.601 40.7002H157.5L157.2 38.7998L155 37.5L154.3 35.4004L152.7 35.7998L151.6 33.9004L152.2 34.7998L154.4 34.2998L155.5 32.5996L157.601 31.7002L160 29.5996L161.4 27.5L163.5 26.7998L164.601 28.5996L165.101 27.0996L167.4 28.5996L170.4 27.9004L172.2 24.4004L176.5 22.2998L175.4 20.4004L173.601 13.4004L177.101 13.0996L177.4 11.2998L179 10.5996L180.601 12.0996L181 9.59961L182.9 9.40039L187.2 6.2002L188.3 7.2998L191.2 5.2002L193.9 6.5L195.3 2.5H196.5L198.4 0L200.7 3.7002Z"/>
</mask>
<path fill-rule="evenodd" clip-rule="evenodd"  id ="TQ_HG" d="M200.7 3.7002L202.9 5.5L203.5 4.5L206.5 7.90039L206.9 9.5L209.4 10.2002L210.3 11.5996L209.9 13.5996L208.4 14L206.4 19.2002L200.9 20.0996L200.3 22.4004L197.7 23.9004L197.5 25.7002L195.8 26.2002L201.4 28.9004L205.4 31.7998L206.9 34.2998L206.8 37.7002H208.4L210 41.4004L211.2 42.2002L211.5 44.9004L209.8 46.2002L209.3 48.5996L207.8 49.2998L207.5 52L206.1 53.5L206.4 54.5996L203.8 56.2998L203.7 58.7002L205.5 61.2002L206.5 61.2998L205.2 63.4004V65.5L206.4 67L207.1 69.5L209.5 71.2002L209.4 73.7002L207.8 75.2998L208.3 76.7002L206.7 77.5L206.6 80.0996L208.1 80.7002L205.8 84.0996L206.7 88L208.9 90.2002L207.8 92.2002L203.2 94L200.6 92.7002L198.5 93.5996L195.7 91.5L194.2 86L191.5 84.5996L190.5 84.9004L187.2 83.0996L185.7 81.7998L187.8 78.4004L183.7 74.0996L183.9 72.2998L182.5 72.5996L182.9 67L181.2 67.7002L180.2 66.5L177.6 65.5996L176.6 64.2998L175.8 60L171.4 60.5996L169.9 59.2002L169.8 56.4004L164.101 54.9004L163.3 56.7002L161.7 57.2002L161.2 55.5L162.9 54.2002L162.8 51.5996L158.7 48.2998L156.7 46.2998L157.9 45.2002L155.101 43L155.601 40.7002H157.5L157.2 38.7998L155 37.5L154.3 35.4004L152.7 35.7998L151.6 33.9004L152.2 34.7998L154.4 34.2998L155.5 32.5996L157.601 31.7002L160 29.5996L161.4 27.5L163.5 26.7998L164.601 28.5996L165.101 27.0996L167.4 28.5996L170.4 27.9004L172.2 24.4004L176.5 22.2998L175.4 20.4004L173.601 13.4004L177.101 13.0996L177.4 11.2998L179 10.5996L180.601 12.0996L181 9.59961L182.9 9.40039L187.2 6.2002L188.3 7.2998L191.2 5.2002L193.9 6.5L195.3 2.5H196.5L198.4 0L200.7 3.7002Z" fill="#ED1C24" fill-opacity="0.56" stroke="black" stroke-width="0.2" mask="url(#path-37-inside-14_703_16)"/>
<path id = "VL_BT_TV" d="M253.174 639.043H253.175L256.375 640.943L256.382 640.947L256.39 640.949L262.88 642.346L266.474 644.543L266.484 644.549L266.496 644.55L267.657 644.646L268.348 648.586L266.564 650.963L263.673 652.858L263.7 652.9L263.672 652.857L263.665 652.865L261.665 654.865L261.642 654.888L261.653 654.919L263.542 659.791L261.667 662.259L259.279 663.354L259.266 663.361L259.258 663.373L257.558 665.973L257.547 665.989L257.551 666.009L258.248 669.794L257.456 671.874L254.571 675.056L250.409 676.443L247.13 673.96L247.119 673.952L247.104 673.95L245.216 673.751L242.531 672.061L236.135 665.765L236.1 665.8L236.135 665.764L236.128 665.759L234.133 664.363L229.838 659.268L229.833 659.262L229.827 659.258L225.827 656.658L223.336 654.565L220.642 650.672L220.637 650.664L220.629 650.659L215.668 647.286L217.813 643.97L221.271 646.341L221.284 646.35H224.646L224.65 646.306L224.846 644.632L226.922 643.645L226.978 643.618L226.94 643.569L224.973 641.013L225.72 640.546L227.114 640.147L227.124 640.145L227.132 640.139L229.805 637.96L232.375 639.443L232.379 639.445L234.278 640.345L234.29 640.351L234.303 640.35L237.603 640.149L237.612 640.148L237.621 640.145L240.516 638.747L244.49 637.952L245.273 638.442L245.29 638.453L245.311 638.449L249.496 637.552L253.174 639.043Z" fill="#ED1C24" fill-opacity="0.56" stroke="black" stroke-width="0.1"/>
<path id = "PT_VP_HB" d="M190.476 84.9443L190.494 84.9541L190.515 84.9482L191.495 84.6523L194.158 86.0342L195.652 91.5127L195.656 91.5293L195.67 91.54L198.47 93.6396L198.493 93.6572L198.52 93.6455L200.597 92.7549L203.178 94.0449L203.197 94.0547L203.219 94.0469L207.818 92.2471L207.835 92.2402L207.844 92.2246L208.925 90.2588L209.569 90.4434L214.061 96.0312L214.068 96.041L214.079 96.0459L218.766 98.1396L220.443 100.804L219.355 103.573L217.464 105.565L217.449 105.581L217.45 105.603L217.546 107.435L214.812 106.751L214.79 106.746L214.771 106.759L212.371 108.459L212.347 108.477L212.351 108.507L212.544 109.869L209.793 111.048L206.619 110.651L205.443 109.769L204.048 105.484L204.043 105.472L204.033 105.463L202.333 103.963L202.316 103.948L202.295 103.95L200.295 104.15L200.26 104.154L200.251 104.188L199.256 108.266L197.275 109.356L197.262 109.364L197.255 109.38L196.655 110.68L196.643 110.705L196.659 110.729L198.243 113.006L196.954 116.182L196.944 116.205L196.957 116.227L198.058 118.026L198.076 118.055L198.109 118.049L201.479 117.454L204.261 120.832L204.269 120.84L204.278 120.845L206.979 122.145L206.988 122.149H210.625L209.654 124.48L209.641 124.513L209.666 124.537L210.84 125.613L209.854 127.98L209.933 128.038L211.709 126.557L213.553 127.235L213.851 131.404L213.852 131.419L213.86 131.431L215.537 133.6L214.96 134.37L214.942 134.394L214.954 134.421L216.754 138.421L216.768 138.45H218.475L219.76 140.13L220.955 142.721L220.961 142.734L220.974 142.742L223.653 144.429L224.043 147.056L222.42 147.246L220.837 145.467L220.813 145.44L220.78 145.454L218.881 146.254L218.847 146.268L218.851 146.305L219.142 149.218L215.721 147.654L215.574 147.588L215.657 147.726L217.734 151.188L215.796 152.738L210.826 149.657L210.811 149.647L210.792 149.65L208.893 149.95L207.106 150.049L203.316 148.753L203.292 148.744L203.271 148.759L202.291 149.444L199.618 148.652L195.46 146.475L195.748 145.515L195.755 145.491L195.741 145.471L193.941 142.971L193.929 142.954L193.909 142.951L191.132 142.455L190.343 141.174L190.335 141.162L190.322 141.155L186.923 139.455L186.904 139.446L186.885 139.452L184.111 140.344L181.247 137.875L181.15 136.994L181.147 136.972L181.129 136.959L178.129 134.859L178.107 134.845L178.083 134.854L175.748 135.728L175.65 130.736L177.398 130.152L182.882 132.347L182.968 132.381L182.949 132.29L182.653 130.811L184.241 128.528L184.272 128.484L184.226 128.457L183.056 127.774L183.349 126.31L183.352 126.294L183.346 126.279L181.946 123.18L181.94 123.167L181.93 123.159L180.233 121.962L176.745 117.178L176.059 114.823L178.926 113.143L178.995 113.102L178.928 113.058L176.054 111.176L176.549 108.309L176.552 108.294L176.546 108.281L175.45 105.591L175.55 103.302L175.551 103.277L175.532 103.262L174.218 102.136L177.406 101.75L177.44 101.746L177.449 101.713L178.849 96.4131L178.853 96.3965L178.846 96.3799L176.86 91.9121L178.135 90.7373L178.154 90.7188L178.149 90.6914L177.754 88.4219L181.024 86.0439L184.606 84.0537L187.687 84.9482L187.772 84.9736L187.748 84.8867L187.279 83.2002L190.476 84.9443Z" fill="#ED1C24" fill-opacity="0.56" stroke="black" stroke-width="0.1"/>
<mask id="path-40-inside-15_703_16" fill="white">
<path d="M148.3 27.7998L147.6 31.0996L148.6 32.4004L151.6 33.9004L152.7 35.7998L154.3 35.4004L155 37.5L157.2 38.7998L157.5 40.7002H155.6L155.1 43L157.9 45.2002L156.7 46.2998L158.7 48.2998L162.8 51.5996L162.9 54.2002L161.2 55.5L161.7 57.2002L163.3 56.7002L164.1 54.9004L169.8 56.4004L169.9 59.2002L171.4 60.5996L175.8 60L176.6 64.2998L177.6 65.5996L180.2 66.5L181.2 67.7002L182.9 67L182.5 72.5996L183.9 72.2998L183.7 74.0996L187.8 78.4004L185.7 81.7998L187.2 83.0996L187.7 84.9004L184.6 84L181 86L177.7 88.4004L178.1 90.7002L176.8 91.9004L178.8 96.4004L177.4 101.7L174.1 102.1L172.4 102.5L171 101.2L170.3 98.5L168.2 98.7998L168 99.9004L166.1 99.7002L163.4 97.7002L160.6 98.2002L158 101.2L155.4 100.8L155.3 100L151.8 97.9004L151.1 98.4004L148.8 95.4004L149.3 92.7002L148.5 91.4004L149.1 88.9004L151.5 86.4004L145.7 85.4004L144.5 86.5996L143 86.2002L139.7 86.9004L136.9 85.5H132.3L131.6 84L131.3 82.2998L133 82L133.7 80.5996L133 79.0996L130 75.7998L130.1 73.0996L132.6 73.2002L134.6 70.7998L133.2 69.2002L132.2 62.2002L131.3 62L127.8 58L126.6 55.4004L124.1 53.5L124.8 52L124 49.7002L122.4 48.5L117.3 49.5L114.1 45.7998L116 43.0996L114.9 40.5L112.7 39.5996L114.9 37.2998L114.4 34.2998L118.1 29.5996L119 30L124.3 35L129.3 41.0996L130.2 41L133.6 44L135.9 43.2002L135.6 40.5996L136.5 38.5L137.5 32.9004L140.2 29.5996L145.5 27.7002L148.3 27.7998Z"/>
</mask>
<path id= "LC_YB" d="M148.3 27.7998L147.6 31.0996L148.6 32.4004L151.6 33.9004L152.7 35.7998L154.3 35.4004L155 37.5L157.2 38.7998L157.5 40.7002H155.6L155.1 43L157.9 45.2002L156.7 46.2998L158.7 48.2998L162.8 51.5996L162.9 54.2002L161.2 55.5L161.7 57.2002L163.3 56.7002L164.1 54.9004L169.8 56.4004L169.9 59.2002L171.4 60.5996L175.8 60L176.6 64.2998L177.6 65.5996L180.2 66.5L181.2 67.7002L182.9 67L182.5 72.5996L183.9 72.2998L183.7 74.0996L187.8 78.4004L185.7 81.7998L187.2 83.0996L187.7 84.9004L184.6 84L181 86L177.7 88.4004L178.1 90.7002L176.8 91.9004L178.8 96.4004L177.4 101.7L174.1 102.1L172.4 102.5L171 101.2L170.3 98.5L168.2 98.7998L168 99.9004L166.1 99.7002L163.4 97.7002L160.6 98.2002L158 101.2L155.4 100.8L155.3 100L151.8 97.9004L151.1 98.4004L148.8 95.4004L149.3 92.7002L148.5 91.4004L149.1 88.9004L151.5 86.4004L145.7 85.4004L144.5 86.5996L143 86.2002L139.7 86.9004L136.9 85.5H132.3L131.6 84L131.3 82.2998L133 82L133.7 80.5996L133 79.0996L130 75.7998L130.1 73.0996L132.6 73.2002L134.6 70.7998L133.2 69.2002L132.2 62.2002L131.3 62L127.8 58L126.6 55.4004L124.1 53.5L124.8 52L124 49.7002L122.4 48.5L117.3 49.5L114.1 45.7998L116 43.0996L114.9 40.5L112.7 39.5996L114.9 37.2998L114.4 34.2998L118.1 29.5996L119 30L124.3 35L129.3 41.0996L130.2 41L133.6 44L135.9 43.2002L135.6 40.5996L136.5 38.5L137.5 32.9004L140.2 29.5996L145.5 27.7002L148.3 27.7998Z" fill="#ED1C24" fill-opacity="0.56" stroke="black" stroke-width="0.2" mask="url(#path-40-inside-15_703_16)"/>
</svg>

